<mxfile host="app.diagrams.net" modified="2023-01-17T16:38:55.811Z" agent="5.0 (Macintosh; Intel Mac OS X 10_15_7) AppleWebKit/537.36 (KHTML, like Gecko) Chrome/109.0.0.0 Safari/537.36" version="20.6.2" etag="8HbYccgXf2m4oeWYe0jz" type="github">
  <diagram id="CCFhQFNFW9KR4f1m8xp7" name="Page-1">
    <mxGraphModel dx="1098" dy="499" grid="1" gridSize="10" guides="1" tooltips="1" connect="1" arrows="1" fold="1" page="1" pageScale="1" pageWidth="827" pageHeight="1169" math="0" shadow="0">
      <root>
        <mxCell id="0" />
        <mxCell id="1" parent="0" />
        <mxCell id="lMbcXObJ904L43rAlSVf-1" value="" style="rounded=0;whiteSpace=wrap;html=1;" vertex="1" parent="1">
          <mxGeometry x="200" y="200" width="130" height="190" as="geometry" />
        </mxCell>
        <mxCell id="lMbcXObJ904L43rAlSVf-2" value="" style="shape=image;verticalLabelPosition=bottom;labelBackgroundColor=default;verticalAlign=top;aspect=fixed;imageAspect=0;image=https://www.positivethinking.tech/wp-content/uploads/2021/01/Logo-Vuejs.png;" vertex="1" parent="1">
          <mxGeometry x="200" y="236.99" width="100" height="60.01" as="geometry" />
        </mxCell>
        <mxCell id="lMbcXObJ904L43rAlSVf-3" value="FrontEnd" style="text;html=1;strokeColor=none;fillColor=none;align=center;verticalAlign=middle;whiteSpace=wrap;rounded=0;" vertex="1" parent="1">
          <mxGeometry x="200" y="200" width="60" height="30" as="geometry" />
        </mxCell>
        <mxCell id="lMbcXObJ904L43rAlSVf-6" value="" style="shape=image;verticalLabelPosition=bottom;labelBackgroundColor=default;verticalAlign=top;aspect=fixed;imageAspect=0;image=data:image/png,iVBORw0KGgoAAAANSUhEUgAAAggAAACwCAYAAABq+pZSAAAAAXNSR0IArs4c6QAAIABJREFUeF7snQecJVd15v+3qt7r13Hy9IxGIwllIYJEEnHJBmMMGGyDjTHLsmBs0tqCNVkiGJAEEiAQiAxegcFgYzCYZGyCTDBJSCAQKE/q7unpno4vVN27v3NDVb2ebk1Sz0yLKnvQ6/cq3Do3nO9+JyljjKE6KglUEqgkUEmgkkAlgUoCJQmoCiBU46GSQCWBSgKVBCoJVBJYKIEKIFRjopJAJYFKApUEKglUEthHAisaIBicdUQB7nNkP8tf8m2wnYTf3W/uL3cUV7rPxeGuLr4rntV93ooZU/Z13Fso42WgvKS8OIxSckpZNBj7hf/evrpBe8n4n0oXuI/dklsxEqoaWkmgkkAlgUoCZT244k0M1oUiKLwACoxX7V4Dhhfu0n4LVVlZM4qWM6DKAKEbLiwEFMf6qCqDqQIgRb7Z8msAAsq+WoBYZWVvJSTgwv4uMjYeUET5NfKLwxHuvOqoJFBJoJJAJYGVKYEVzSA4FV/a4cpnq7xU197fnmd3zU7xBWUpnyK/a7bKT3SaP2/frXTRwXanveL62+S4wLECgW0JL9Ltq6r96U5eQXJOSLH9W6GUAwMBjuU4rIuhWXGCqhpcSaCSQCWBSgKWbV7hUQxW2fttrmfR7cZflFYKTBsY14YJrZjNYCbVzGfGqsdGrBiqQx/yz7CuphgCelDI3tre2yKBAAecunTwYGVBhJwf8UErBcdi7GZfANQ8MGUMYxrGM9jT0lZemacURB6RMqyrJ2ysKdZFMJwo+hTEOZvgyAOHKQREVPOskkAlgUoClQRWogRWPEBw7EBJkRtoKbg9M/xo1nDtXMqtqYAExZyBKQ0trYgN9EeG/hgaGIYwbEoUJ/VEnNaXcHIPHBcbBmSv7ekFu/O2j1qB9HnJEuN1t8VVsxhu1XD9HNw4n7K9bdihFSMaplKYzyANNgcMiYJVScT6WLMxMpzeozh3IOHcXtioIAkoLWdiKoSwEheGqs2VBCoJVBJY4QAh0ObKOtNpFNu14UtThm9NtbmuFbMrgzmj6IjFXEFmOXHHAUR+1yu29ASs8huKDJtiw4kJnNmjuP9QzLm9ik0oatZBz7ELK4xAcD4V3jTQUbDbGH7agu/uTbmmmXFTGjGWCniK6BhFO8K+a+BMAnNi/Q6AmjHWxDCo4ORE8+B+ePLqGvftgd6SH6iqKIRqlakkUEmgksCKlMAKBwhB5oY2ih+l8P7tc3ynmbDdRLSJrJLLN8D+dGEERIdZsBDUpqXZrc3F2tgTI8rPsCXRnFkzPGpdjYf3KU6IFI0V2dWGjoFtwH9Mab65N+XnbWFaYqYyDwhUt19C8DAoSSn3SCjHgtS0ZlVkuE8t4+lrYp64OmG9EjPOSkRSK7Jzq0ZXEqgkUEngTpfAsQ8Qcjd6YQu8o2Fg+O1XhhaKf2/C22+f44dZwiwJesHOVUCBtbWDNS9IqF5uK/eKLHjlaw8cLMtgDDVl2KAyTiPlURsa/O4qxVnKAQXnorAgCHKBT8Sdqydzt0zvJVH2jyghnhCEYaCtDDuM4hvTGZ8f73BtK2LMxMwrRaaUN6F0A6bySCvLrghiLEMEYWQMPUZzEm2esS7mmevr3E1kXZJzcBN1YZLl0Mk7fVxXN6wkUEmgkkAlgcOUwDEPEApi3PvSl8PsDFbJfaVpuPi2WX6aNWhG8R0E4peVWtjdFk6OTm2ZHECI9hfl6JgGQ6RhyGScqto8bkMff7AWzowUfZa+7w6LdFcES0RZiR/+rrqMmQp2REIOvbS8k6YAp1uN4T9mDV/anfKTOc1uVaMdCbOynyN/SCGzHFgteAU5Q36TQwDVRjr8yZqI562vcXLiwiGtH4f1Hg3oq+jZ/TWl+r2SQCWBSgKVBI68BFYEQHC6yimakABJ/AWbAg7mDW++fZ5rsh5aUYjrPxBBLgQL/ppCq+97E2uCABPBQKfNabUOT9rYyx+tjjhVKXqM3917PwdhN6TNNmaizCocSPMWOacMDLTc2/tSlE+Vp8lvO0zEv85q/nGkxXUtxYSqoZWTj4Uzi/gOKg1R8NNYqo0G66+R5tEdwXHT6X8BHrE2bNYdnj8c85y1CZsjbc0N1nsjj6ZcGCFyiEKpLqskUEmgkkAlgWWRwDEPEIp9eJHMR1RNG/ivtuGt25p8s1WjJczBwiNo1LLTXEkvya7WKTrnfS+nl/0Sum+3L6BQZKzJOpzdE/FH6+o8YQi2KkWtZAJx5oeQN0F7iHMwQKbcijyHYXemAa90XVQCfLejed8OzdWzGbujhGwhcAq7eR+VkT8hEBAStpj7f7pkSPJPWp1GuLBHDzViI2YK+cPLx7IEBqU1Z0cdXnlcjScNxDYapCtatDsN47IM7uqmlQQqCVQSqCRw6BJYAQBB++2ui0Kwu19juFnDpTtbfGo6YUrFVknlm9NSQuXgcT8YwWAMvWh6tVO000oxH8U0M2NzI7QALfSA9eD3h9d7ll7veoYzR1jq3Gg2kvHIQcWz1iecV1c2GiIwHtb1zzZOcg7I94cKEAoaIqRAdtkaDB3g1lTxuVn4+LYWN6oazbhwExR9HHwrgnJ3/3XKXgCS/B6bjIaCgShijdKs121Wm5S6co6go1GdbarOZMcwj/Nh8Jggx3KWLRCmQWf8/gC8dnPM2YnkUChYhNzScOhjt7qykkAlgUoClQSWUQLHPEBw+++CE5e/Z4DPTmkuGcv4ZZo4zwFLbxcK1PEJhmGVWe96Ud7nDtVZE0NPJHt/Q1tyIhj45VTGT6bm+ZVJuIUa4x2YkVA/JYGQ7ig76gUuIdjdBZyI/b9fZ9yrx/D0tTGPH1SckCjqfuct2RftzvpOC/tz75pJIijgv5spHx3T/MeMYVzVLchxEKYMmxwckHexYMczAwmaNUryQMCJUYuza5r7rurl5P6E1RH0+0RImVHsFSDShq+MzPIf7Rq/7EQWZJU9CspP3Jw2eeWWGs8eShgUJ46yqWERM8cyjvXq1pUEKglUEqgkcBASWAEAoXgbUcJCb/+8Y7h4V4t/mY2ZicQivu9RR3N61OEZg5qnre/l+AQaxu3dJX4/eNLLlWKuaGKY1PDLOc33Jpv8rK34TRqzS0dMEtHx9ns5X4DBUqaImtFsMh0etyrmD1Yn3KcB6yNDIsyE046HfJTdI0S5N4GbUsMXZzVXjbT4TVpjLnHyCEAgs38UJoGwuxfo0ItEZ2jOamjuH6c8bFUPZwwkDCljs0kKyArnO4zm4Jrccw7Df7fgAzub/Pt8jT0q9qmqu5mKmjY8LGlx8UkNzql51iUwKochi0MWYnVhJYFKApUEKgkckASOeYBgFVP+KpppFJ+ZyLh0zPBLLaYFp2VyDwGDTWh0VtzhBesVT1ldZ9hS2wuYCCUZEpxXvaO7HWSQrIGScnhnM+UXMx1+1Fb8oBXZnAFjOiaNHKsginNhJEDQd4FNuGdD8XtD8HurYs6oSQrngBHK/gxLackuOJA7Z1p5CGtghDXQfHZS89UpzU4T7+NrEJiCknRsfofVSnNaYrhXXXNeI+O81Q221BT9HhR01cEM/g0h+MC+gvtSoiR+1jG8a2eLL8zG7C2BNTld/omMhtIm529K+Ou1NQasiaW70uYBjdTqpEoClQQqCVQSOKISOOYBQrkYk+xgf5PCpSMdPjGlmCorpBJlvtW0+asNimevq9v0vwdm8e8OX5DnCrMwqRU3NDX/NZvyzVnFNU0YsTkYo9ymb80PHqVYvz/vciAJhIbRPHLI8Mw1NR7Sh1XCeXkjf25R+qkUpeFrTIT7OhRjLIC5NYOvzGT800TGj1sRe6U9ks/A+lAszlIIaFlFxr0b8NBeeEh/xFmNiA1SS+EwiI2mgW81DW/Z2eHqVkTHO4tagBDez8D9zBxXnN7Hfaz3oyC2lVjw6ojOzephlQQqCVQSOKoSOOYBQimZgFXY35rNeMOI5r/ajj2wyr/kgNcwGX/Yn/GaLXVOs/6Gh8Zjuz2yU2biADgF/KqpuXou48tThh/OK6YFoHgAYn0VFzjqyxfSvgGdcv8GPGtdxBOHItZan4VQDMqmDPJPc3dwPhcBaPiSysr5S1zbNnxqIuPfpg03ZRFtFTtQIKyGDzMMIyqwHHWTcUqc8TuDiscPxdyzEbNO4aItjKtoeaiHsBlj2vChiYz3jGbsiOqLhlAOddq8YUvCX66JqHVV2zzUJ1fXVRKoJFBJoJLAckpgZQAEn4RoL4arxttcPGq4NXKEvag26xNgbeSKu6VzXHxyg99vRPQcTihdXvUwiN9VhxQnvWvnM740o/ns7ozbVN1mbQw5APbtLJevoFdnnFLT/Nka+ON1NbZ6M0VR98lTIAHQlLIzyus3FfygpfnASIdvzEaMEVlzR1fwZe4p6L6NxZxgUh7Sm/HUtTUe2htzXA3qEkdhsYhDIYeBD+xz2sbwvXnDhTtSvtWpkUW+1kUpY2Wi4am1Od5xSh+bKvZgOed0de9KApUEKgncKRI45gFC2SNeKjReMpby0XHNTFLPBWBt7Tatr+YPe9pcclIvW8N+/lA3x/mDXTlkC0asPnU5GKQI1DdnOnxyT8b3LJtQt46LhTtgd/84p0HNVpXyxAHDc4Z7uEfiCkA5HONZBF+Z0mVFFP8IxbzQ+G3NFTtats7EDI49sWGLC00KxqU3FnBwBk3+cE3M765OOL0nZsCGMRYSlXvfGd4Acssd2vDOsTYfGDfsTYK3RWBKnCzO7kxxxRmreGj9sHw175SBX92kkkAlgUoClQTuWALHPEAIzReG4Jqm5nUjGV+eE4e84AbnUiPLsSptctHdenh2f4QE3rkzDg0hLPRIyDl/fz8BJLMGru9o/m0645/HU27QNVrize+jMrsDDF0bxat/reRM6Nf87+E6D+yB/txRsnSFBw1i2vjynAMHP+rEzCkxaxRqvbtOgmNTVpk2j+k1PHN9jQc0FGsThQSDOnOMf0bpHocmoWJgSV6KJoovTrW5YGfKL1Rv/mOZ4RBnxbds7uH5ayMSCcC02akP9+nVFK8kUEmgkkAlgeWQwLEPELxCE4/5r0y3ec2OjOto7GPnFjVzbjrDh84a4F5CcR92Jt8CIgTXwVDd0PkIOCUt+RR2G/jhvObT4xlfnoWxqJbnTShqObjuC/4FA2Q8qEfz/A01HtuvGPSRATZzgbADRjGmDFdNGD420uKXppY7AJYHggCCoGJTA6fS5FlrY2vGOCGWglI+j2M5u6NtSO4huQgNcTBDTRS9C3+U8NMLR1M+Py3mD5/ZMiAEiS7Rhuf1t3nTiQ3WWBkehnfkwTSxOreSQCWBSgKVBA5aAsc8QAiJfvai+OhEi4u3Z4zWeq3PQbkqY6zh6b1NLjuplw0hKLBE3R+sZApQENS6D5P0N7JKMdjSfV2IWzPDp3d3uGqP5iZVI7W5E7wWzJWhIjba+i306Yx7Jhkv2BjzpFUJq0sEwq0YLt3V5p/2GHZGdbRlTBwYsFkR7R+FQaNHpzwkavPSE3t5aE/EKuuAqAsHRMtSlAs4B/PC4e/gQ7PHjeE9Y03eOaKZqPUtSK3sBPcEZrjs1AFOi4v3Odi+qc6vJFBJoJJAJYHll8AKAAiiCiNr879kT8qVY5q5uOYlI8pWihNBf5Zy/saIv10f+zLM5bLIhyrIRQz8JZNFucqCPEFautsYPr8348rRjJ/pBBNFyM5ewIyt+5DnJXZtSrTmrCjlRcMRT11VY42Cm7Th4m3z/ON0xGzcY50j5TLLRvhoBbmV/QysTlv84Sr4q011zkwiehZikvz1cy/GQxXIItf5exrJH2H4p8k2bxox3KB6SnkiCkPDfdMZrjhzgPtXAOFO7IPqVpUEKglUErjzJXDMAwR5ZbEySMbAC8dSPrVXdVPtXhkOd5q8aWuD56wqbO1Hw74tzZnC8M1Zw/t3tfh2J2GOJC8KJdtqATXlAkcCEk5TUv0w4X6DMZ/c1eaTU4oJD4SWytwo95GcD89en1izwtbYpXa2YCU4Vh4BFj/ADgEs/zWnefWo5jstV7/RHQXTcUpnjktP7uOJvcqGZVZHJYFKApUEKgkcmxJYEQAhOCi+alfKvzcllbCyu9Ny8aFTm9Ncfvogj+t16iovLXyElZA8XZgFSYMs2Rc/sGOWLzbrjJBYs0J5D1+YCoRJMGyJNJsaETfOpUwqARWLN16+lVTSp9LmOesS/mhNjeMknXPIp1C6rOwkuHyiCG+tuD6FC3el/MuUohPvW6NhfdrizVtq/M/VMYEHOjanRtWqSgKVBCoJ/HZLYEUABElUdPVsyv/d1uGHNFwMvwcI1qpuDPfLpnj3qYM8oMerwaPlIV8qkyzA5uZU8cndTa6aUNyiarTvQOmLX4PLyujTP3vHwnI0hPy+Cs05tQ5/ui7mCYM1huNyeWbLudj/txEcy4cKXCfYxhWhoNsNXLyzyUf2RMwnkiPCnRJYkN4s48KNihevj+l1YQy/3TOwevtKApUEKgkcoxJYEQBBCil9bTrlFbe1uT7pW1Cf0En20Waa950+yKmWtw6ujYca5Hi4veW9E3xRp1Fj+KfdLT4yCdelCa3g4b+AhBd9afVtSWeWzQuS4Hm90TxCQhjXKR7SH7NGskmW0juHy12mRnev5VXBDr4EF84JA5ePzHH5noiJuMe2oQA4ih6d8derNX+7ucbqKozhcAdadX0lgUoClQSWTQIrAiBI5cDPTae89rYONydSg3DBYeD3swk+fNYa1suONMQSLrNqXLxXSq3LnQUVE8bw5SnNB8czvtdSzEua5lIo5sJ3WlgMKjJSurrDkwYi629w795QQ2Ff9W8hUsm/cjkBQnAFDbKYNoaPjre4ZLdim5Sd7joUidE8v6/F67b2Mnw4mS6XbUpUN64kUEmgkkAlAbu/NMJrH+PHLIZPTmdceFuH7Uljn9ZG2vC0dJwPnr2eQVsHaDlV4v6FFfiLrjMNTCv4z1m4cqzNt+ciW6o6ZGlceNcyQBA9upEOTx0yPHddjbN7lK0MKSmc7e79DjI4BkZh/60+vDMcHtHMofjkng5v2a240SwoxS25EJThT+pz/N1JAxx/dLvp8F64urqSQCWBSgJ3cQmsCIAwbeCj0ylv2tZhNN4XIEgUwDOjKd592moGIucIeGzoHk+wW0UuqZGNzb549Ty8d3fK12cUc7FPKFQaaGUfC/l60KQ8dRBesiHhbFtLwYMgb1oIuRaO/jsbWsA/T2a8fgxbjtv2hE8fLe8iGRSfmsxyycmDnHCk0MtdfBJXr1dJoJJAJYHlkMCKAAhTBj40lfLmbSm7S3n+nUAUdZ3x7Posl508aMspl3fUyyG0/d8z2OVdUqMiNbKxlRd/peGS3YZPjWvmFwEIRVCge9JqMv7XKjh/OGZzHpbgaAN7/3AcJYRQjsyQOhVfnMq4YAyuTUOoY9FIgQxPjmd5+ykDnHSU2rv//qvOqCRQSaCSQCWBFQMQ3r83463bO4wvAhBqOuN5jXkuOamfXm9eOJq6p2xiKIcZSmjmNg0f22P4+J6UmyWRkmRjLJWrzumPHCVIHQXN2VHKizdGPG0o9lkSHUCwz5KKjMfIblwiTr4y4wDCT9riVtl9CGR4YjzLpacMcMrR7KRq7lcSqCRQSaCSwB1KYEUAhL3G8P69mot2pIzHCx3fsJ7xz+ttc/GJfTS80jmquicvc1DsreWTRDO8d7fmo3tSdkhthf36ShRcQo/RnJukvHRjwhOHIgYsTeKiJSw2OAZCBuUdpTbF12Y0rxuFH3UWBwiPj2e57JR+Tt/v+1ezt5JAJYFKApUEjpYEVgRAmBKAMKV567aU8VKZ5yC0RGe84BgCCNaqkG+dnUfErIIPThrevqPFrqhuwYH1TCizB6G+hM8d0DUoDPQazYN7NH+zKeFRfdiU0s7L8bArU90p40/eVGP46rTmtWPw4y6A4NopUaiPY5ZLT+vnzAog3Clyr25SSaCSQCWB5ZDAMQ8QROmIk+KHp1Lesj1lNBb//fKhEIDw3Lqk8B2g7ygrne4KEO6vDMUXmobzb5zl5qQ/b3wACPKFLcUs5wZwsISnZV+W8rh+ySNQ5741SPKqjEeVM7FtDwzCV6Y0rxMTQ7o4g/CEaJZLT+3ntKPcV8sxoap7VhKoJFBJ4K4igRUBEMTz/++nO7zh9g67kt59AAJa8ywmuOKMtXkUg5x0tFRmnoNACkmh+G7b8LIbZ/hh1CBTIfTPVVMMDIIAhBqGWBk6KDr7xD8W5obBLOVpqzR/PVzn7onUdnBUxNFLC+W6RFooPghfmkp57W64trNIhAaGJ8ZzvOOUAe52tDrorjJ7q/eoJFBJoJLAMkpgRQCEOQOfmkm54PY22+J9AYKUT35Ka4QP3XMTq3yipJJ1fhnFt9itC78DqcJ4Xar5u9tbfGE+oRWX8wI450QBCVKGeZXWPKrPcM++mK9NNPlR1kMr8ryCZxNykwSwwbR51jrF89fVOCUSR8ajiIiKotZIFMPnJ1Mu3A0/zzxAKLEh8s1TEmF7+jmhAghHeGxWj6skUEmgksCBS+CYBwhCXDcNfH4m45W3t7lpH4DgXvbx8yN87F7DbIgCc+C5+iOhhHIF6MGBUXQU/LJjuHxXh0/PwN7IlSZyvIGPPPD5AVaR8vjejBdsqHH33ogvj7e4bLfhWuqkKgppDvJedUBBcwIpL9gQ8WdrEhv+6LJMS5hn7rrok04vN7dQxCrMo/jsRIc37oYbtCusVVSvBCnf9Mxknjef3M9xR5H1OPApUp1ZSaCSQCWB304JHPMAQVSP0NZfne7w8tva/DLp6+qpEEb4ODPDe08f4G65Pl1OZCABi9ZA4KsQFM8S5S8+BzemhivHUj45aRiRjIne4BFqKzj2APrIeEyv5sUbYs7ri+kzhikUn9jd5rLxjBvpsVUgywSBJFKSFojivUeS8tfDMU8eiBnynpH52T4M0v69zMkhQuaHGQNX7Wlz0W7FLYvUa4y1thEnrzuxl00VQPjtXHWqt64kUElgRUhgRQAEoeq/M9vh5be3+ZHqBghCwotyenA2w7tPG+CcJIT/hf36cvRDUQzKqWrZoTu1LF78O7WyeQ4+OG64zcTdZZtLdLuLSsh46YaIR/bH9AoL4N9njySHGm9zxZjhduUcMwUnyNPKh+SAeEQj45Wbazy4oaxKtuCjjI+CP8NyYCb/PgEg7AXeP9risnHFSFTfJw9C3RheONjhlVvqbOiCPcvRT9U9KwlUEqgkUEngUCVwzAMEeTEpm/zf8xmv3J7yzbS+aP2Cc9pTvPOUAf5Hn1AIjmZfLohQtig4Ot9pXvl+0hj+ZSrjPaMZ12Y1Wkt46kvRonvGKS/cGPGUoRpru1IiunvtNHDFSJuPTCh2qtqSXpf9WZun2UyLdc5OBGQEZiNo72Us6Zine3acyhhw+c553rMnYm8s7Ee5miNIueeXr1P8zXDMqkMdtdV1lQQqCVQSqCSw7BJYEQBBduW/aMGrd2X861yEtsb20mHg9OY07zyjn8f1ivNf5Bn1JWIFD1uspfyAhU8i88C3ZjXvGEn5diuhGcWWUViQEoHEGLaqDs9dG/Hn6xK2SMnm/CyXKlrUqrAFN2l490iHT0zA7tj5MYSjiGuA9VmbP1ureOlwjRP9D+U0z8tBHrhWdgOxbcbwtp1NPrxHMVNzzEdJWgxkGRdsjHjh+oiF7qaH3S3VDSoJVBKoJFBJ4E6TwIoACKKEbunAG3ZnXDUBWhRveWdqYHN7jktO7eNP+iR00HkqLlfZphIm8A6HhhTFtR1jmYPPzSgmiHOTgPUZCEobw2ad8oxV8LyNNU5NpARy6M/izoEBsZEQHXjnjjb/PKuYjmsuNNKbHGwaBJ9JcVicFtfDX66vsaFUk2K5YFJQ/h7PWGBzQwZv2tXmM3uh2QVonADWpC0u2pzwnLWxi7yojkoClQQqCVQSOCYlsCIAgqjAnRreNp7xvrGMeZ9uWRSfDaQz0J91eNVGxcs21Ox3wSa+HP77TuEWTxCW4NYUPrwn4+MThu1GAEyxZ5dPAhIkCdIak/K0fsOLhmucVYdaqKMQkiL6aEWn9N2YmcfwvTnDRTtafDOt0YokFsAd9v1MSM8Ep9LmFZtr/PGqCEnJ5FiE5Rt7RTslXFPx45bmNaOar80qMhXZ9xbgYPtKgJxuctkJDZ46EFiTZWzc8r12dedKApUEKgnc5SWwIgCCKJcJY/jARIe37cjYXStKPou1wRhFLct40SrNG7bU6PdhhAesGMtOBXmXF34FXf5+QTV7xS7gYALFZ6ZSLt+p+RVJ7pRYVo7CEtRMxu82OrxiSw/3rkc2MVIotBTMCmqRaANp3rSGf51KuXgk5VpddwAkByGORrDFlY3hgVGLN5/a4IGxy48Q3qQIfuwe1wW88KDDo48DCXwoA5lUGb45q3ntqOb7rcSyJsEbQhooMjg9m+WKM/p5+NFO3HAUpnZujunykXHjN3SlMQZ1CBkm5ToLF+8Iby0Ai13mIV/Lo2hjQKDFPHDfyE1kJIXcn0dBkNUjKwlUEjgiElgRAEEkMYvhHybaXLi9w7Zaka44SEll8KeNed5+ci/D/ku/ZC4qyC5MEGIl7S7eOx2WF9OyEb20SMrHJhH/0cx4y44O328ntJVPDqTcjtmaQnxUwf3TGd562gAPqUm0QaifIEo9OFUGh8d9V3lpwkhm+MhEm8tHNTvjAiQVatjlWOjXGX822OG1Wxoc59vbrXTKYZmluhG2+FNgJspiO5BdvqEJ/Iv00ajhBtNjwYEzBRUw4UHZDO86fYD7WLuKc6f8rToWOHXmw0k+LHDoXCibwFn5U0PPdmXQXFizq/uaboRQtmx1jYh8zEZY4GF/dIm9iiIjv3U991s1TKuXrSRgZ71xW49j/mgBX55q87qdGT9zZYpyVSb5AMQm/zCzlw+duZpTvaL3y9oS71ZWhQs+l8MC8wXd77983OC4AAAgAElEQVT9b6L45Jm/6Gj+bleHL8wo2pHbr0vUhRwWIIgaVIpN7Rnecko/T+tTSKCmU8UewvjKjPuo5gU7vtTAr7Xh3WMdPrHHMCVhhKWKjrlEJImSSfnb4YRnr5XcCl3iKukk94MzZbjwUPdjafE/ABtFyFop+Rs+MjrPRSOakXrfPiGZcusnmhkuPW2QU0U4pZ3zMT8AD7OBRVcWOTQk66T4mMg3IXxVJB9MZFnJPCP79ZC4Wq4J95Pv5LdwDzveSv9kLNpe9SA1d2z1viuRMiTa2PDY2BYQC8azwjTlKoWWgN5yhs0eppyryysJVBK48ySwQgCCQRbLHzYNr9qV8Y1mbJVuULFhG3r39hQfvccQ9y8ruyX3qGFvVdAHzl+hmzpw1RTk+5AYSU5x6n2XUVw2lvHB3SmToQz1Ihur1WnKi9dEvPy4mEELDdwWTeXKdyGN6zdt+e7N621JGmUUP+7ApbsyvjgDc7GjekMCpnBmj4Z7qCavP6mPxzakzoPTEu5J3QxCASwcWpCzygzL/hlv1xM7jeLSsTbvGzXM5GagEjrRhufU57jklAHWHiKVfucN/aNxpwKIzmWGj+9p88nReTpxgvY/Fem3XG+VR2mu3P0olZ4P/SlK3IIBa3lS1vdDfpPy246XCn3vs3lagCDVNQ1rkpiTV/dyfL+if7bD3QdqnNSj2KAkkZexgMPeIXf8De9RmRmOxiiqnllJ4EhJYIUABLH0K27oKC4cy/jHvZCFOgUlSa1vN3nvab08TaLr/Gq6FBG6kDax53kK1e/r/Z0LwBAIePlm3iiumtG84bYm2xNhNBZ/UmQyHttreMXmmBNCeKbngQPTEJIjye5PCB0BPw6SFEdohXzXMvCdecOVuw3XtBTpwrBPsPb+HpPxqEaL12zt41wbLdFt1nDbyhIkyl/VA4Ty1nOJERkukXbf0IELdmd8di+k0b6FmuqZ5mVDbV5zfO9vXYhjUPROjIoZrbl0D7xjNGUuKTxFyvBtsTG6kAzq+tszDqHA58Iuy8d4jggdsJScHJLhUmqa1I1mUGWsiuGM1Q0ePBBz/x44KVIMRXifFhk38uQKIByphbp6TiWBoyGBFQEQnAFB2QyFl421eP+YYcruUIvl0VKzqeaCjfCyDTGhKPQdW0r97iooQr/bkp2SKG9JmSw6tW2cUhYWQ2osTGnDdR3N22/r8CPqdscmPENoj3zKQxtNxpZazNpOmyQu8h3IG2WZsAhgsY4wIsaQanet6HwVOaCQCWOhHWBIJIJTQTtO2KFjxjOXvTE2zrQhajn8V75fZ1KeMmj4kw11tkaKfvGNUFBThnokjoPKAhK5Tv45KOZDRUsSXopFsBL0z/6v+dQyPN9pS1KnQvKBKFnVaXLpiQ2ePfjbHsFgmNaKi8c07x6XqJzE7c6l30vA0ALGAHT9b7JIWHNE8HHxJcIXG+dl8GDH1D4rjIxbEOdS+1wBC34cS7/GJmNQp2ytwwMH6zx6UHFOj2JjpKiXbBUy/g/VufJoLHrVMysJVBI4MAmsEIDglroJrfjwWJPLdmt25DUZ3G+WYgeeWRdHxT427i+6z5oJjA09bNnyyoZZrZjOFPPGMJEZJrRhBsP2VHFrG2aNoqlhZ9OwrZmxQ9IoW4q/YBnCQmsXcr/oy1oqFHKICog84ClIXznX+JBAt3sPJoNYu/BICzpKnEYgPMI9nRQCSCm1xxiGjOb4xLC5EbEqUTb88bgeOLGmGVKKVQqGk9h+3xNpBhNoCIhAWAenzJfyrA8EthTU+sJUi9fuyPhV5FIghdZY5WTgpHSK954+xKPr+/G2P7CxuzLP8izVlMZGpLx3wjAbC8h0TgEh8sO+XEmpiyxTn4rbRsd48BD6PZgUymNRxo27jSsrvthRABBnQgg5Oaz5IYAPo+nTGcdHhkesjnnyUMS5DcWQHZfLEUi8Mru2anUlgbuaBFYIQHDL3JwvJfymUc31pp4TCBJ/HxbGh+hprjxjkLNL2yVhAWThlaJP88IGAOMp7GlrpgzszDTjBrZ1FDfNw14Nk+2MqU5mwYOkS245NWnVXieSxdRx8znFvs8WrmwxLhR+OWlSWYkezsDy/n6FT0a4mW+cYzSksfKFtqaGOlBHU9eGviRmYyOx7MLGmuG0hmE4MmyII9YpWJ0o1tQVA8oxEFJhQeIPAmUtjpJ7DXx0T4eLdqWMJN0AQZ4qiue8bIoPnDXEWYuYRIIqW9akDYcj5MO81nVFYWgQFuqisZQr98BsJFDMjdFC0YcIkIIRCgyDZbc8aBS5BkW+EAPIb/JdAApLvUIoHBZArcst4uaU4+7cIWNowHQ4t1fxx6sjHjsUs8maHbpBQgFPD1No1eWVBO7yEjjQ2RJm9x1z4ne2uI4pgBC84QteNWAAp5o7KK6e11wworm6GRR2yFLoBH23zjzvPL2XR9WdWWBCgICGXe2MsY5hRBv2ADe2Im5tGqYzmEm1BR8pEW1rLpBUzW5HFXZouZNXaRUO2RGDF/nCzlnoR2AX4MPswXBPu4PMF+7ipoF+tuCjK6SuUMHlJgTAkmgxLshib2gYTQ+GgVjRHymGe+BuDdgcGY6PlS2pvbkvoV8b1icRg5FhLIVLx1I+Mik74iIldGhjTcPT6rNcfko/67p85T3QsuGlYbIc2UlwmF1ykJe7d5zWhkt2Z7x7t7EmhmIMFf4nzunQ7eSXGjdl5b7QDWZhUMpS9yizXjLm84gKm+tDEmDl7jnWctSjM05QKU9eG/PU1TVb/6MctuuA7125Dw+yy6vTKwksIoGwXZjJJIy/iDaSSWbXQovRFZHWDMaKnsiZc+3cOkLT65gACFZQXpPk++6SAILikIXr+hT+bqTNP+9VNOMiWa9dRA0MZhl/siHm3nXDSDNlRwbbsojb2obJjrEMQhtDR0WkSmoluJQvRSrksmeD69V8EV5QTXEhG+AWxkIxhx12eWyE5xzqjCnffwnWeNFb5+IM425BNGN3Omj/DvZOYos2NsmTMAe9kWJVBMcPRKxLM06owXG1GB3HfG5S873mIk6TBktRv3yj4ZXraxZ8lLo8b69rYxFmd4TmwKF2xWFdN6MNb58wvGMks+M4cGBlFiHkkBCGaN9RWTx+MSDaNeb81QvHS/B7CM+Wa2RG2ZBJb86wzIa/sGziioxmrcl4xCA8Z12NB/bigo/t+DpyC9hhdUJ1cSWBoyoBYxnqr+xp8f2m93nzgNwytF6BDHTaPH59g3s1EqRY8ZGE38cEQCgWv7BlL5KzlDP3CMMgFQ4vH2nzgQnFeOR2qjbu27iYcvm8Ljb0GsNM6kwEwjykUdSV/njfcaGsIpRjISWbJzzKL3LnRaWcCOGnxXb4+4QjLHj4gSv98lJe3KS8wyycI8tx7O7cskLImYYFDJe93vlMllxAuxssclJGUxPgoIw1PdSThD2ZYdomfVrwggaG2/NcfoaLMHHv696lK+WCF1RBx991IYIwCG/bY3iXpA73+TNcHzlfFDkcmHR/iBPqUoc9Y4mfcxahFBop5y8GVK3lx/uLyBwIgEAAghvXwq4VfSamqn6d8uBew0uG6zy4V9Hjx9Ndt+eOqkapHn4XkoBMlSngzdvn+Pu9EZnyKfQ99SvzUXjyje1ZXnNSH783WKfXA4QjJYZjAiCUrStus+Td90pKSr6RbIq/0fCh3Rmf3AN7fNbC4CVf7JCCU5bnHvxqtXAHVcSKuwU2rMcLF9wyQOhiDXzymXyDd4irYvAwl0X5YFiBoBVc/kR3hOJNZYWRszJdo2pxsFF8uwA5OIhhBVXkXPD5HIJDYun9F77H1s4cl53Vx6NjGMwdLovME3JvBxr8c47wRDhSEy48R3wQLh7LeM8ew5wwCCU6PzBWHaUYytrcfyBh2KQS1uL6wOfhsCq7hEjD3LHjQPxk/Fxy48JpfG80sPkRxOF2pK0ZTSVdeMR0lGBMZB0mJf1z7M+20TwCDUqRKdbvxQOTAZ3yO72a87fUOScpjAuHOB2OdFdUz6skcNQkMAG8bnuLj0/HltEOR9jAyVqwpTPHG0+o86TBhN5gfjhCNoajDhAC2VwoeaeEbPphYE7Bdm34cQt+ujfjF/MpP08TtmUx7a4VyIcMSE0CXxip8KN3DEPhU+CVqddFi+14c/kXpiCrfV27Fqpcn5vW924RqqZpiE1fZ/SajB6JNzfahjCWt3xhjS+P0oXq2XkICEviGJFWlDCvIvuv430m7shWvfQMcJCgO9FSATbCPbt3+oVvhrAJ1mHOo173nzJkcfeSYlr36YVz6or7DCTcfxBOiKA/t1YHSBHCPe7aVmwBCG8dlSgGaEbig+BUd55V0YYOYjNwvvG0fh5YdjYoo6/yHFji+wBg8zQcHupJ+O6k1kyIGS5VXDuv+N5Ek1tVwpw4TtqhUYzEEJUjbZVvw3ySz8fplGetSnnxph42WAaqggdHTetUD14hEjCMo7hgW4f/Nx3TjN3MsoX9cl2iOL4zw+tPrPOUgbrLH3MEp9ZRBwhuw+h3wH5BSo1iTMHPMsXXRjtcN9fhVh0zqmPmjLL+AwX9WqIH/MfFEsVY2rbsQxDWvbBltn8Xin/fXfdiO2rXi6Ikt0YZj+iPObNfWTu9KFzJUteIhYKHPp+VTs5dyol/f/0uLZCBI2aTOWFUNMxmirYHU/L7tDF8czLjO3OGeUnAE+hhH8mxL1ByAhCPdwmjK6CT0zZBPGXvevneDmAf5uYk40BGsF+XfGzcfYyx9m2xU69XHU5MNGf11jhvMOZB/XC8Ik+eFOph3JUhgpgYLhp1DILzQVBoFdIw+3GFYlNzL+87e4jHSPIKO1UCu7a/0eLOtbJfQlnLrwGQSJjqZAa3dDK+Pw9fHG1zrUmYjWNfg6HkG+JjawO4l2c0tOHMKOX/bop54lCcmxpWyEpdNbOSwBGWgNN5e1C8fluHj08r5mWu2Unenf9ka2eGN5zYw1MGa/QWrulHpL3HBEAQUcnOeNwYfjIP357WfH+qw22pYbdKmBFnQqt8AgLI2e4uITlnrqXCuhan1PMbeIU+mLUZStusStusb9SZSnq4wSTMyB6v1HEhXlyuX0PKMwcznr+ph+MEHJRDwzzuKIIknWZdbHnPzQSLdH35twAUrJd7vmt0H4Rd+GlH8+qbmnyfXudPUcI2DiC4Hf4GnXJGDWamp2yY4nSj19Z3EKorJF3cr1OlryIZ4vdzT3nfLpt8aQGjIGBB+koG+2pSTowzHjBU49FrEsswSA4L54xz1z3ESVF8EC4fzZyJQWp4eIcBV7zLgaot81Ncec9BHuNTat+5EvHA3PaVE7gkTZox8KuW5tOjbT4/a9gZNVwf+pwYFliUwLhcJ3UcenTK43td5k4JZb2Ld+Gd2xXV3X77JGBgr4LXb2/z4akoBwguz4nLPyPr6fGdOd5wYp0nD8b0HuHMI3caQAi7iUIfdefwDUxlsWF3GeJlJywFiL42A18fa3LDvGFc1ZhNJOCuoLLd6HEhX/KDLXdc1u5dw6sMBtznsm1eaP6hLGMDmi16jmEyzlg7wNr2DCf01jl5/ZDNxLgDxZVjKf8qERM41sLSP/7RAhISNI/vadn0wefUHDhY+liahTj82eE1spFET/CRyQ5v2dFiW+IrXy4ACvI8AQgvOSHmyT0K2byOtjJ+uWOUyaSXXdS5ca7FbVGdnVGdOZXYfBC2MoU2mDzPRCHfcvVpkdW+zp3dbylXBp+OXp2yIWtzRn/Cw9fWeUQf3L2mGPI5F3y3uz2vLfIUzBj++aHGxQoJsBOAcOkEvGsktQxC2MmX63bJ5+ObU7zv7EEeuywAYalR5wD7iIbPT6Z8cDTjV9Rs/o+QbbOc5CuYlWR0HE+HF6+B52yo27ojzq+kmKt5tdTDH/DVHSoJrGwJGMOUUly4o8OH94ojvdMeYQMYXm5rZ9YCBMcgHFnYfacBBPdmJQVo6fyQWsjTJnKOUkhVwj3GcE1q+NKejG9OdLhRK2ZsytnYemyLGITy7qa+vWe1p8v3HR3dhgFRPg1lGCJlLamtIHhqornXUIOT6hHreiJWJ1KzQMwCWFBgd/+SSRG4ak/KO3cbbjW+SuMCJ0IxF9xbSW2BHn63X7nwvbwI0ZHtyEBLBXuz+G28aXub/zetmEtq3SyCoFOpgKk1D02aXHZKH+d4F3ZZz4WFkNLNTQy7m5qxtjA5ihv2znNDE37ewYKGcQFNOLZB2AwBCEWsfQmkdXdL3m0BIMi1AfgZqQVgUjapDucONviDDTEPFVZBxoIdPyE7VWmHupBesecd22uHAIRLdmvevVsz68N1FwtUODoAwclO+nLCwJemOrx3NOPnWY22KvKP2Clv/XJcDUmxgiRZxiN7O7x6S4P7SsZt3xELIfux3TtV6yoJHBkJTAIXbm/z0amIZql+TXkt2Nqe5Y0WIHgfhCPTNPuUOwkguL2+5QQsRggpj9yyINSkfGorw2gG32sZPjeR8d29HXaRWIe7ghEoLSWevi6HHeahV11CcrUIXO56d72EYJ0RpTx9bcKD+xVbG8ruaMQXoNeovOiM1SMhps9TvJJp8ep5ePNIyrfmJXNiNy8goEXqMqyLOrx4NbxouMYa74XupHoUtFPuVe60pewAf9DMePWtLf5LN+jYgg+5PcK2MdbGOg++ZFPM36yLGbIpopyDaPmQq6QGhZQnFtAgoYwjmeFnk22+1475/GTGuK1muTRDYntlkf7Mn5Mredd/Ar6kiNDarMV5g3WeujHhIXVJ1iRAzIfd5cDDPTf4pcg7HOvHdFZyUoyTJbMdHk2A4Oa0s5N+ZrLNe3cbfp3VbI0SW/NDGDWpW+L9XIQxEl7nJJXxonXwzLU1BvxaULj2Hvt9c6yPnap9dw0JyNwSgHDBthYfno3plKIYym94FwAICzrM2rkLyluiDXZn8OOW5rNTmm9OpoyamKYSYOCuXWKTueRIkH2M87B3wECOgm2QHbLm3rUOb9lS45GNyP5mVaRdsMITywyHUzDy262Z4T27O3xsHJdrodRGq4qkoJLSPDaZ56KT+7lH5Khyd97RWgC9QcYrd3mzSWP4xHTG23ak3KZ6Fo19l3e5J3O889ReHlaLXErmEEqT26Y9APTAR7pW5C4RJp9uGl5zU4udsSueFQjlPBufrysR6l4U8imAoL1mIStUwhqNLGMtmvsORjxlbWQZheNryjo1OkND+N+FsSHH7kIynWneOpJxxSS+muPibT26AME5OgoQuF3D+0bbfGJvxBg+86OdL65IWI8tN62IJS9G1uFpgxkvO67B3bxHrrByRw08H7vDoGrZb7EEAkB43bYWH5+JaclGNKzfpeIpdw2A4IsfyQ7e8gW+5sGIAIP5lK83FV8fT9mmI+ai2NqQRTGEKogh3WtQ0vtsYa1NWxIgZayKNFtqip4k5lfzsNs4/4ByeKOojK2mxd+uynjOpn7rPW9D8axC6a5rZ9WLV0hSm+FzUxlv26X5hal1KVV3f6fYtugWbzquxjNWxTY1cQEOjhZAEIkFkCDwydgCUL/uKN451uEf9sKUqu0T6imXxLrDX6wyvO64HusgaMM59+EDupNYyZOmjOItu1PeOeo98ReYYGpGc2KPYrVS7Ek77Ekll0Vs2Y3uIlOht++AgbDhqxmbVcpDByJ+f3XM/RuKLbGYkZzMLfNxNMV/EIudlHu+yFZzNMc2QPBwWsxO354zXDLS4bttAfcCJv2IszJ3fSfJwxKT8cCejFcNJzysT9i6RRKgHYSsqlMrCdxVJSCmbDExfGwqsky16ENbRrC0jt1FAII3LVh7tGLUwA/nUr42C1+bTNmexcwrT6V2LeLdO8kSCW7HhGTrGzIZ61RmKxKeUTPcvW6491AP7Z6Yy7a1+HqzRssmkenmIVbrDn/S1+EVx/fbmPuipN2CBct6jRs6Bn7cNlw00uErs5FlOMprm0vJrOjVHf7nYMZrtvSwOS8UtVRswpEe2iXPdGVo2oVd87ZdKd9uJTQjR8B3ydnA1nSe159Q44+HavQFjsVnO3QyKMvW3eGXGl54wxz/SV++ObSMkMcpx+kmL9pS44E9Mdtm21w3n/HzjuSwUGxPJSQzoh0JmOnuudyhtETIBGdG+a1hMk6MNQ8bUDxmIOJ+fRHHSa7yEFu5ZJzIke6LpZ9nUy3vMbxDohgkHHWJ4/j5Kd53jyPtpFg0Ju8bAyPAlaMtPjwZM0qcF4lyHggeevtUy3cj5W82GP5YzAylsePut0JQ3LEzXKqW3EUlsFdMDDs6fNQ7Kcr8yEPF/TvfNQCCfTEXIvXzJnx5NuPfJlN+1Y6YjQQYOP+EhY5YZbUTvN4FQ/VpzfGx5u69MWfGGWfGKac1Ik7s72EohrpSzBjD5SMt3rU3Zty5sOWHKBSxYT+0nnLBcXUe0nD0pzuK6jOhXLF0yqiGD+xJec9oymjck9vigxnEOjBqwwPiJhfdrY8H1Yp0tCVddtSGclHsqrTAi3nHwD9MZFw+prnRSHSI22kHabhU1YaHxU3eeEKD83oi76xZEpW9Zf4ESyt/ak5z/o3zjNQdQAgysErAGM5LOrz+ONlFSgpRg8Tab5/P+HVb89Om5rp2xG9asD2LmEZqYwQmwDs7+sGx0O9Evpb2Sn2Hk2qGhw3CYwcSHtAXsVEZ6yx3rCuhABDe5QGCx1T7jJ2jbmII/WqMrYb61TnDm3a6ZGU2w6J3TC2SdLnopA26zXPXGV6wocGw78el+aGjNmWqB1cSOKoSKAOEtmUQ9tWRKwwgFHvPYMuX+S8ObLdnhm9MZ3xhUvOjpmIMl+WvXAwpV6QhYV5piyJswRqTcno94gGDcG7NcK/+GsMJDEbKlih2RIB7soCOf5vXvOr2Nj/X9a7QR5fP3nA3lfIycZhaV2cw37i468OiLOfK4vefLcPrb2/z/bRmazeE5EC52cPA8WmTV25N+PNVsjNa7CiBkP0OvdAOrxjL54vJxieHLJwoF9xwn2qNhYmhrLGlRsXP24bLRjt8bjpiSvIclJWvt/+L7P98KOP8zQ225hrfv0+pdoJQ+RPKcP6t81w112NZgIVHr874w0F41XDM6TUBh8aaeMQNUsaKJHTa2Tb8ai7l2k7ED5tw7bxhTMe0bZrgQp101yboZhvE12TQZJxVVzx+yPAHa2qcFUMtsB4+HXYJMh1FP5GiFZIoSVItX7HH2FoMduewyMZaAMKVZy9XHoT9DFDfBQHwyX8lguVNt8/xlU4P86Vx1DVclBRN6/D01Ybzh+ucFPxjvVnxjpxZCxjqhFFmMHIEGh62xFQL11iq1mYedc614kzpDmXzbMh6ItVcCu6xlLK8tIkI14T2lPm0I2nTcq1zEfJBOG4ee34vTOrSOicgTua/yCDNU3S7vBXl93dSKR2u03PmsHtvFfjE4orSmftd9Q7nBPsc24+FmTJP2lJe9Ba8iry/rDsSQRd26cJdJl4OIgtHfhbm1WIjWR4BxeBzUPiOjsLfbV+TrbvORTF0+OiUQgDCYqXZ9wUIBwK1S+ccyOlLvMYhRjEUidhlTM4DPxEHxAnNV6cNN6fKhkOJApe2LZYCOJgt5b+y09+kUh7QH/PgPsO9GhFn9kWstZPYTYelOkJqM7zi5lm+0Om1pZpDN4cBv0p3eOaQ5mWbG5wYYulymtP7HgAjBt422uEDe2A6crb68t3kPRpZhz8eNFywpW6dr5YeHEVER9ksvu965tVgPrE9YAgREd58EYCYnxZdXZmDtDsYBPLTNPC5vRmXjhquy1zfuPt5Bz/rxGk4S7V51eaEpwwlNDzICv4VOdtjDN83iv/1i0l+nazKMzCW2aDhrM1LhiOev6bG+n3xQz5JZeJOari5rfnRvObqacP35wzbkVTa/kIbZZKv7sUyUHrnutasVymPGjA8e32DBzZwphIPbLoDS44+xR1SLb9vAl+saXGAsNWbGJYnUdKBLdW55A3sMoaLt83y9/MNppfwupa7Sl6LJw3AK4YTzhK05lX9gUnedWwBn6UfpZBEAKu+3f62Tl+4O9vxZLAmzpvmtY24mWjDaLvDfKZdITKgL45YV6+xpqZYExlOasDGSLFG1hwLzh2ote3OB8+CSqMlZ+z9qYoDk/RiZwWo7OaAk0wBnpxWc0pN7NczVukYa8Lb1TLMasXeVDOZZsxm2ipImVW9UcSqWsyaJKIRw4Y6bK3BBgVDfv3Jp12+VhQwoLs/i546sP49dGmEbV1u8rQ5Uco2U3GqVXa9220Mt7RgvANTGsbaKVOdzJqSpcUyLAftOEhYlSjWxooTegzDEawWnzYPvRzzXQ6vXgKZlpoReqgMcLtdpFwq9QklUQwd/n5a0Yp9tJzXB+JDJo/NMykOSB4EF6m3fzn7OWQ3Zk7e5bFzoD1wEACh2K7mZgLjqlF9az7jo2Mdrp4Xql+KTrhUw+HYFxW5plpgoNs8aCDi0UMxD+iNOamm6FehvnxQYku/jkyIy0bavGMiZk/uh1CoVFEcD+vNeN2mhAc1XHhj2Jo7NBpZuvwrbcMrb57nOtNAL8iF7JgEw71UkzdubfCYvsiG2i16lMbO4jp74eAqBJXr4zAzu2z/iz+uWLICJFr8PCnO8+sULtvZ5tMzEZN5BcFi0ZXh2W8yntKf8ootDc6IHVtTpOp1C4Qg8XeOt7lgRNOKXfFmC6ZKBXzuJfkhNsc8YSCmb6lUvz5do1wvfSDmqW1tw8/ahm/PwDcm29ysJLPjIghjod+CZ5b6jebcuubp62P+YChikwV6ga5ye639T64DnT6Hft6UOCmOassghHLPi+4efKKkowkQwuIi/5W69ZfePMn7Wv2M2zG07yHy7dEZj+k1vHo44ZzGwRZw8orZOGdbaxHL0zu7QZZHSUkUk3FZWH+dKn46k3H9XIedWrG9HTGnYua1KEptd9JhpZSNR28c04g0/Wg2J4ZNUcapvSkYO6sAACAASURBVD3cb5Xi7gms9eWv7TX5oCnB4C5gvzyjKt+DBn+gAJw8WJJ3lzX4pgyundX8crbDzlTbtPQSOdYxkU2cNmcMLZemxYYyi3KsSS2UyNgy7mK2HVYZJ9Qj7lZTnLu2zimSTM1iL+mDArSFTJ+FyilN/OURQzHI/CJZ1kGiATMj4ddwYwbXzGp+MSt+b7AjjZnWkp4e9mpDR/zJ/YJlx6mEvcfCpigGlWE4ztiSwBmNmPusSTgtMnYcSNp853xfesEF71rewshncXjflWFNq7IEyj3E/ClZgVPtou9mFFy5W/P5vdqGOVqI4G8U8sNsSOd54dYaj+yr0SvVXiPItIQXO5Ah6irxNKt8128Mm2NsYafDXfEOHCAU2ssTXYY9RvHFmYyPjHb4aSdmSpLmSKMCNe5fNuQmCPOsR/wLTIeHDigevTrmnEbE8bWIfiX5+n0uhbLr2lKDzodgfa1tOP83c1wfy56xCy5ZM8EpqsP56+FP19UYdNsNP+FdT+wycMH2Dh+bhpYUqfHKrhyCuSFt8dJNMc9dk9idxv7mQffEDgtMNxgIf9lQMm0cBShpiIX2smhSlHMojRMWN//k8nbder2WqMfFVm3jmJ4vTme8dSTlmkxobWES3MCVhUYmjnw+lZTzNyieviaxmQydiSMUw1LcguH51+/lG5FkTijKO4fhWNMpv9dveM1wwr3rPvnUIiChyKtVgCaZPEIHS/TLdW3NVyc0X97T5Ja4n8zXI7D945158lctobF6Jgu+5vd7M563qcHZifEZLo+dKAebanncl3u2qZYXTxF+fHOa9589wKOPaCbFhQOoEK7s0N932xSXzTbYEde6nV39ZQLnahaYa16zUYC/82kJa9/+5s4CbWDHnhvfhYFW/haFd2MHrp7J+OFMxg0dbJTUlFZ0jIRfSt2WBRDaFrUM7IDzm5J5Ju1rSPlqyV6ZZJyeZNx/oMZ5PXD3vsRFypR49m6Yv/hW4NDh4x1c6XVx2xhuzTTfm9H892zGLzuG27OYvZmiKTlhQtZTn1pd1jKncAo2Tt49mGxlRRMLuOSJGVKGTXHKGYniYUM9PHRIsSUy1hxTBkuhFmsBuhdufu5cCQQTi1vBI7tWymbl1kzx/bmUH0x3uKGl2JbG7NHK1qwRVll0gCTds0XlfN+HyqS2Zo5FnMWrSXK9NWRsrmWclsB5Q3Ue0qs4pR5ZMFX4b3WvuWWAIO26erbNh7dNMxq7/IcWJMi6FWrW2DkfsU0ndtxKb7i1zfWL3E9AhETJnZhkrFcZYcbZ30ptzve0Bs7pU/zPdXVO65HaDsHLrgBGB9MrBw4QLJPlhCPKZJsxXDWpuWq0zU2mbqMIgj1sH4OAnz8SpnhC1uF3elMet7bOvQdihuPI1rgOgnHvHBYDW5/2Dg9p0jYMr/jNFJ/Sg2SS0c0Dh9DlQ7rN01cZXjZc59TYkerhN+nIz8wZXn1Li1ttsh+nKK0C8qmVrcIbMLxuc42zk1An4A4aFjblvvqjtWzZxcV57Ad0+evMcG0Lbm/C+HyH3fMtOlqzqp6weaCXNYnirCE4VcHWSNnKkOVdemEgCG9zx22S544Yw3tGmly5N2E3krmyWNxCGGe/zamf8Yrj6pxbd1kXg5lBBuxnZgx/fUuTXbVGHh5aBlUbszZ/tUHxF+vqlq5bulX+2eWZZWe/y0EuoXVjmeHn8xmf3zbLv3cSbk4a3T4Pi61Jxke/0OERDcNfbmrw4F5XKKr0ugczT+70c62T4gRcOpLS3g9AuPLsgWWqxXCgrxXGiEvB/OGRWS6ZrHG7hM0ucgvp70RrHiIAYUPMg/qi3IX4gFRIPizCrs1R/jIq5N4pkd0xf2ki5WsTbX6tE8ZVTMuCArcS2zolPjOqUyguDFru6HJ0OFBQeIw70CCciKxzdaXZYDQnqTYPX1PjCWt7ODORMdQdz1Ps0A4c9hy41N1qEcyAcl0bxfUZfHlS863dTW42wpwmNmW9gKGgvcK7lTe8oRfd+ubaGyqI2if5ddgypkbTozTHGc09euDx6+s8ZkCx2dbdcG9QjArXq/vfNh3omy9yXnmgKRkDcIs2fHkq42vjbX6dRtZRfd5EXg5hzLi+L/daGAvu7YsbB18zt5a5ZG2im9aRcVac8oR1dR63KmaLL8bnsJZnWH3+mNByyUT7hak2F9w6x+21Qac3w/pTkNh2XAsYkLUuHGEv5vL2uFba7aI3MUlOH/dOYd0v5CV994h+zWs3xty7UWwu8+R3B7kAHgRAsBXhraBv0HDpjpR/mXJ1Exwlv9hSUWz1+nWHR9baPGdzP+f1wVrvHOIIBzfUuqfYghGx1NjyDobvGW3x6nFly9TKJC8qE4rHu+Y+ScZrhiMeN5BYWsnzlPwCw0t/Pc9/ZPuaFsIsOF03ec0WscvHtjJj7iR0B23q+sk6+zgHPQFW35qHL490uK6ZMmYiZlVsdzuy/MkCLD7/sr/vM4LoNcdFGfcfqvHUDXXOTQwDPjOl31KVSn/tZwJ64PSzFDtwv9rpoVWyI9tEU77LtkpO/XXwnPV11oVppGBcwnJunePDc700c9jqlrBQpvScOOX1w4rHDSVLm2K6mur6fzFHJxlz0qY9QqE2DV/Ym/H5ScM2CZnNx1133Y8ASaSbxVnyofWMFx9X5xG9ioEFE/kwlqzDutSmWh7XvGtM36GJ4YT5Kd57j6PkpLjgDaWXRPF+dNcsb91bY9sSAMEyCEbz4IZbqB54MAyCHQolZ8GShpOfpLjNN+Y1f7+rxY9bEXtUzbMEvppoYLtkPAoVa8GiW51kjjmw7hKbyah1SqG81Hpl5231UqJ9yKTcvcfwjA11fncgYn0O9Usr1p2PD1xb/YZFKn3uIuIzew3/ODLLTbrGpKo5BtDLqCj25Rgb+dtltywUeigjXFZCokbke7F552YDW2fGXVtDs5HUhhX/+foa9+tRlm0JEMP1lzPXeqRwWHNjsYvLjKzQ8t9oGT68rcU17Yg9kok3BwHyLpIDxm0GZA9twaKw06WKtWUTuDwvgIPE+1/ImiPKWxzn5XqRwWY6PLxf8awNde5Xlw1bmYzu9oYWgPCv0x1ed2uLW2oDOVPl5F5iXXPTkbuXSND1UcFyleUR+m3pwGjDo/o0r98Qce+eyDLC+7qUHnj3HDhA8J7uvzSGN9zc5EtziY3fXlgtsPxoWb9NlnJm1uT5W/p52mrFJiW+B94JyFI7Ilg3sAJQCOpif6PNTmW/u/2uhhdcP8P1sYstyAGCh7lr0w5/tRFeKLtaDxBmlOIdY0K5d5ir9dgBZBeS0mRvZCnPGMLS5SfbtAj+x6UWhHxDXo7pNExLxEXLcOWtTRtRMBHXaYtyLs/e/J4lwOXv19Ad7mYynrS+xrPWx5xu/TTcbqnbV/YOOt9HRgj19o9Tmgt3drjZiENmILSKa2s645F9mtdtqvFAYRE8mv1BZjj/17N83/STLeIa0Jd1+KNV8MrhGqcl+4VSHoOVwWAuQBtSKmPDfqMEKBgmTMQ3ZzPev6vD1R1JuuXqTOSFoRb0iwUJWcaD6il/s6WHR/ZKFcllWc0PfNaJfdJHMdhyz9HSJoZjASDknuNSRwV47217edt8HyPKRV8sPGRYCIPw8F7NBcMx9224SKbiKPp436uDsnGLqFve3NW3G8OHxjX/MDLP9rhhq46G+8qcdXSxm/tOMRbzKE/OVYoOKu+u93kHX7nS1hhBHBc1W2jzjA0xf76mzgliCy7b5ZdhTIVy3eLTdY02vPP2Nl+fNkzXemw/BPavlLQ2fw1Zy5zS7D66TOilJSpXjEUEuLtaZClKTSt6spT71FP+crjGYwcTBv2tg+uke1Ygyg9qOuz3ZMcpwnaj+OAEfGLXHLuVRFDJdioo1QUuArZBQRkbCxRdC7s3kI5ZknTyzndOwICklg9ssmWVPKiUiqX3qGc8f7jG4wdiVnVFwRSvIQDh36Y7vPbWFr+p9XeNU5G1BXN5+7p7aWF/ShkBYTNs25UwRUtsxi1LZnhMDhCU9U9YmPbuYFa/AwYIspO7xSgu3tbmqinDfFxfMn+8vIgs62t0h8c3NC88ocG9YkmNK7tMGU6Od3bzq9Rrrk/C/xzAoHEAQS7ZAfzfW5p8ouky9RfVBt1tEm14jCxYm2Lu13C2uO+mhhf9apafJn0uvbAsMKVqjUIzna1a1qv/SUMJ/XLf3Ct0cTGXwY20TNCspKmVqpB/P9ZmZ9SLkRm3yE7WlWIuTWqnGUuoXqpQdnhgn+G5w3Ue3atYLctnYET2s0iF4lkij20G3njbPFc1e5hbsHwH1LJZt3nJWsPzNtato45Uc/zQaIu3jsP2yFrj9jlO0C1evs7w7A29Ngz0jstShL4v+QZ43eGUkpNxWaaC9CX50/Udw8dGO/zzDOy0fIvL9p+DJSn6WNJKkq75f/Rq/mZTjf/RUJY6PJqHjWIYSXmvpFoWE8MiOUKkfUcfIBSRNtId4h1++c453jtdcyaqRYQoYm9ozaP7Ml69UZwUHdXZbateugPKGFtuL34P10pq6tvb/Od8xHRcy4FAeTGV8SLqQu5sc2rk6Z1dI21Ym1+URfGH3bSj41153bCxCPeySaB8RIPcd3XW4vfXRPzvdTXOrrtQyeWi1mW+SrGsrzQNV9w+z8+zhHkBxN4gG+yNCylpabNVQqWMfCG7rRWEgBvvrCjAyvlhuKVYlKFTju4IIYVhVWrojPN6NC8cTnhUnyqSYC3zfJIxcE2qecf2Dl+fMUwndVLxBXPFXT2LUjYYuLEg7+ffLodLYa6V9ayM0G42qTyw3ch1hfxcRlfxa3vuxoQ/XJWwPvIQtuTQLQDhSwIQbm/zm6TP6RbPcgSmRvoomLiEBXLZYnzhu4J8dyyABazutzsCtlKp+LG9mgu9iSGM+/yig+ynBQChNN1LHrrS7BET8YHxjHfbJEIyLfwA8kIrx3ALvXiySvnTNRF/ti5ha6y8g0u4/x218o52FwtWo9LtxEv1g3s1r9zWYjqx5I+bRqUc/yfpJq/YHPOMVbJ7h4t3tnn3pLI7OLsDDZ3imzckmRhXwfkbapya+GWgC2F3Y5lcep7Wk2f8vKO5cqTDZyc1u2uNwnB30NrJAQV5H0GxZ9cynrsh4SmDsbXzF4EXhTrNKcCyvcrvoMTm9bWm+F7McS29C8pnu8aJo9nDGxmv3pTw4N6InRredNsc/zDfYMY+sGwdlfMzHt6bccGmGg+29NZBv+QBXeAmkWGXOMlOdPjERMY1ncSncfZ94odR2B3I+JTQOwGJfz1c4zwLEgr6ZrkW+aVeSPIgXDSW8Z5xQzNxAGGxKIajmQehmF5hj6iQKqEX3T5rgWWTJFeostiFQ64TWT9xEP52OLZhjuWgxa5hUcKIhUKST+6Z4lfw3Zbmbdvn+W6n7hWk26XK78GfIChJu4hbx66MmmQ9tam4xbkso19pC2kkN8u8rVga0cwMc+IYq90OUpz73L7Fm808oyj3tGDBwFDW4jH98Jcba9yvEdmKsRaWlOj8sHPd/xQoKGC313PKQMwhIutPTWRctbvDzUrMgVGeA8bu7H0VVXn3MM6l7cJ2iA9BLXIVNgX4SGI5+T/x9pd/crj8CBKVFBhcp3xCtEcOInzHhvo3DZ3y2AH4PxsTzq0XEWd3Zqpzv1+2Txany++3NW/f1uLbHYmSq3kGxa1AZfOmvElgkeRlJDmetFsK0wkLKdEbYnaw2wnjGDFx+LROjLY6re9/33FhLDgnWXeNfCcReKfQ5nmbEv5oKGGjDz0MzrQyvsTEcOFtLW5M+u175CrVy1OYgfL+Xt5G1rVcd+Wbo3xk2NEtQKJsQg9uBXJlYBAu2BhxjqzBpT14VybhA1ppF1ZzXKCb3TgyTKP47EzGm7e1uFE1fMXE7ieEUECJI7hP1OY5QsEMJqz38aTLwMCVxOeWkx9p+IvrZ/lJ7DrETurSDBWK7I9Ww8s3JLYg02tuaXGtkp1waYKEztOGc5KUVw5H/O5Q4pIJu9GymMXSyz44Izpnop+0xCGwzb/NKiZliVo8Wu8Auyq8kRtAic64e9zh+RsSnjaUsCFyyU/CxCpe2y1cJbyXfx43LuzxismIyRA1kS/lbvDKjul/r1O8YH2d33Tgtbe1+LEW9sg9Ia9/YWCD6fC81Rkv2dRgODR3eTreKQcDs8pwzTx8YrzDF2cUO5BkI4F1yRuR950wME/o17x0Yw/3aRReycFD6yDg6UH0276nhkyK7xzLbB4EafGxBhAKD1Q/5o0b02/cNsc30h5rIssjffwYC8nFpGDTn64x/J/hHpt/JHcMtprcQfGC+nTycURYyPJpmMfwnRnD5bvafDutWTrZeqT7k8PiHXbSohglp8GJccZppsndGwknDfRw0mBMXahjS5crGzEksfASVnvTVJObmpobWobfmDo7dcS4BQsu7sJ6nZddwjzVPJilPLo35aWb3DhK8qqVRV+HUXggICHk67AK2sBvUsNV4xmf3au5TbKfxhE65DH37GvZJNuDtlFgq6ROTNRhY9Zka6PO6ggasWGgXqMexcx3UqY7Hat0x1LNdiMe9Ak7MwmXlPTyRcEgUayFX0ORmEgbwzrd5lnrIl6wrsYJsYsUyN9z/y+86NwpYGhYbCU8E74zp7lipM132jEzUc2uOaIg5THBl8Ayr561FwUqbRfGen0csca02KhSNpGxpSdmIHFAKTWK2cywq5WxO4ptRtcJakxmEgERW4airIiDCSvs8mW8naZavHBzjacMJp7NdYBPIrHExPBGcVJMhHsuXOOLarOi6F0Emci9DCAEPDi/NQE0EkEijorun/OlKY2zkvuDdVLsM7xqY8w9G65fyon2DnZ9W8TEULAI7kXh32cz3rK9zQ8yH5PuOyeEqbmOMmyQCoe9whwkPLA/sXGlDuEdsNXgoBbdYofj9hF7UTav9ZWTkpUqlJD2nv9epmfR4i+2JPxsIuPTMzW/E3aPtfn+bVsN603K/1oDf7W+ztaSq0DXQuftgI6+84uocpToNS3DFSMp/zobMW4jPMqQ9KBec5+Tw8IjOR7uFaf8n00xTxyMGVokgcbCXaCbVg4Jy7v+oGN4xU1Nvo1Ue/z/1H0HnB1V2f4zc+eWrdmSTW/UBBJQEbBgF7CBYsGOYvms/EWsQKSEIL2DUqQEVCzYUcQCIkoRBBQVEUIIaZvt/ZYp5/x/73nPmTn3brmb3WwI9ytkd+fOnDnlrc/7vLyhyhj9pASBDj81z8WzeeCWPgedGhcQD0yFJiVemia+CReH17kqYmRHMKb3xqO/rWZbvxx5fpuExK0dJdw65OIZweCtZCfr9aU1FhItIsBHW8joSWOZatZpjo2x6Kco4XbgJe1eDBPxIDyfEQQ73KW8eSLb6o9U5ON/kadC7wxu02fHmrZ5ooTPtUh8oi2nnASz7+KpjoFa9irpdaCSXMfBA4UI394e4M9FD8OKc0GXf+nnmIgfYZpanAir0hTBAl5Zn8LeNR4adeSSZJOuvlYGiFpljSonY6NEFPEC+N+Qr0i6/lpy8U/fQbfksm0jF2L7Xsu/+qiEo+qALy/MYjlF8SwxZ8571Z1kRVDoRJLE3C6Am7sD3NIrsQlpxQPCLKT8UZ1ptUFG8Lz5rsD+mQgHpAX28yRWNGTRlvFQl+KycTNugzRSawYJX5CR5OCZwSIezUd4KPLwjxK1cicvnRvg0cf02ohz5roWhDzoL89P4z2ER7CjKFVfutpB4UmhsuwHChLfai/hL6UU8q6nQNxqN6n5SOj72bgEaqTAXDfCXmmBVakIL2nIYr4sYq+megWYzrqkZPke9BTCNdE8kJ57tnsAm0Qaj5aAx8I0ngxc9GvZbaIpxj00xi1Fpg5wS/ja/KzCJKjEq6qkAB4vBPhFRx69qnSe10GlMkw9DpVppoBHSi6eDAzYX8stnVKgnwjg/9JaYgWmCAg/We0Fq0OqmXIa3/IsNbPLYAlF7tQ+5z0/lWUZO8Wg1oeAFMA/fInztpZwpzqkppq5XCDQAVzsRnhXo4MPt7hYkSEiIR0qia2bqQyvykaKya34WWRZ3VGS+NL6PNaT1abxCXZenyZ7VZOL9sEQWyRnEPkgGOVAIboIh+UinELd6GroXayxG12SaF49SE3gAgfPComrO0PcOgBsp+riePX0P6YxFTZOgW6TjkK8LheqxlEvyzDhx6jh6kiQjoImkRfpYNiRuKabuRF6vYT+yRgh9HINBMxpdDBYFHja9xQVMn1MTo02JSG9P1AX4pRFOSzRX1bbchrvOvHqJwYCrS8Jve2Rg5/1+fhOt8ST0lN02ZZqiodC+2I/J8BX56fxznoH9boUMxnqjA06fiUyEC7oFriqW6AwQZnj4ueRKCne4tpoJCzNle0l3DqcQn/MbJCIJlVnrpXX8lSIr7cB75jlKbyHHS1ISq6S3Fdle/iHi5E6Q3flU4oa3HDUm1yuMQ5IIeybjnBknVRVM9S7hcBzSlKp8Vh56YrtyEfZKAtGqxPxGvUH+XV/Cb8ecrA+dOHrJnOUJyZjkuvpSVFLtEQ+Ptrm4oS2DOZo5sWYWCx21ybaTxbEWI91iwCu7iji1kFTpaFJyCwnIwOB2RA4qAYq3fHyBk8xIdYR8l73KjHnvfLp8bD0ApOXnAewKXTwR/3ejxWJ4ZPgeuyBkoy3vU+aK5KTb8iEOHNJFgfqFGxibFczAsb4e1xOTUabg8eKAld3BvhdwVXRDZI4jJdIjB6tqtRaEHfBS3MSR9QBL6t1sbSGq84UG6+WgexQ2+o0GQf9jcreBwTwRD7CbwdD/LGQwrMB7QGqNNOkXdbQaV7mRkWcNNfDJ1oyishIaz74kjA7iWFno1X4GgnqxXDhdoEfK6c2AYvbZvP8MI+vL8niLfWeioqwgVC+qskbccqH8F9EI22/nTatdmhhygwEa33US3YCuK7Lx7V9DARTQJ4KD5NCOQsQ4X1NwPEtxLvP3qMNDYkLbHdoaDtyMZvTpCgob3fy5gA/ylOomSW/vbFp+SjcqKxHDUzkQ8DPU8aOI/CZFomPz+YUibmBusReOf0ddX8dHxqGxM8HQlzYJfBERFUeSV6Bw5VT/ygr0AIymtxTfRjgYy0SX5mTwUKj7GKjxxo0nw6r6oEF9+ORxElP5/EnSqTYHFLx/jL14dz/wkwBW9VcTrWnG+HkNgcfbKJNrL1y/bypv/FE30wstNiqlw66Afy0r4TLOgTWOxR4ZWGiyp707eibVP749jqJ1fM97K+rLdSbTYyq3GmvojAIHSG+TVTLExgIzydIMRZ1ksL9Dn43InBpR4jHAsIe0Pni6BzvAT5EtCcyIlQkSavnpXGoAgRbByzew3r94mXk1aG00VOhxLe7GIBKQEillnW4ko8ZgewcNEiBQ7MhPtDq4bX11KiLlQEbG/rUGypeLZNGl3xZB9qqYuoWwN2DIW4bEHig4GKAOrvq12DvjQF99L6LUMQ3FmTwHkplaORbUkFhpM94RoIlnbQSI8/57nyEyzpCPBoQxwFX8nDunBXzynSItzamcHiDh+VZKIIjA6Ir28M2GLpsyrUas2QYKX0Cof59ROB7fSHuHHQwQIBQbfgZZj9aZwqN01fnBAWcujiDj1FJcxnr6o4fFaNKCQuwPpC4rjvAzwagqmVUtMoQour34JgSyWyBvVIR3lQvcXSzh5U5NhJN2juJ5owjvONIcDJmigJT874/D0b42aDEfXmgX6cBDJ0RGZ9t0scxjQTkzmI/SrXYeC99X7P7Y5yKxUVA7Z6JavmWoRQKhghOiyGDeVkUjOCspVkc05DWXDj0HmPnq+PKn5grITGBE+E++bUpjyBYFKYEXqFysvOonMxPw08RcxWHt2KkL4BmhDi6TuCEOWkcmKG6UVZCxi6fQRfSestk51AY9LtDEmdsKmGbBiva4omVeQU+wSCedYjqCIoeLKB6XxYCiSriR8Y/GxlkKe4nfYkLOki4uRjUTXhMsyGalOkYCOVilgdiym+Iq+HsPbI4usZVtbt2OSYfPBuGZyMtHeU9XN0T4JvtIfoISFkRjrKPVeXWoncjUOobsoHyJA6OS0GnU307iQ1sW7NqUTRozeEGKD/o8VUr5WecbKz0bQOB9sBSUcLqxWm8vz6l8rdsC+4auKIyEDojqDLH3TSCoJA9Ou32ZAh8uzPAz4YpT8tQQKOs+VCw4UnKpFn6+FCDwInzclik5Jjlu1iHif9pzi6vOfHnf68nxA09Es9J7gLLlQQJSJBQ4PVS4LAsAXVTqlsolZvFSjkmKLM3ciKRxtvf9hUEFCRl+WBR4KauAPfkqcmZbqqlt6fxHSgX/apUCWv3qMWLvYpUQ5UqdCOPbOuVfkfsruu6A9zc52CTjtbQVNYRA20t8KEmB69s8FS/GsNXMDpSMPZeTs6z3u16EOb35EX/KwCu2B7g18McSeCVMrz+hmyKsVDH5HxcuKQGC1xTqTJRxGSCs60B1D3SwW39Aa7tElgv0gioSkCTXNl7juYjK0MckI7wvuYU3tTgYYnHTajKnDm1UGUI0jKnMZHp5aBrmh3qGPxICfhej4/fDgG9TkbHMiTmyADHzAKOn53GijQbp/Qx0tbsj3i/VSoO4ndRBoKPdcOcFjcfU2FB91jkj2DN0gze2ZhBjWVPjjmTJqpua0fDQqol3I7o5FEYBM7tOopx7+pOH9f3u1xGptfcfmmiTH51JsBXFqbx6mxKhT8MVV0ZGcQk5P3ULymHttDi/DuUOHmTj9+VOK9jK4ZRz9ETzhtQYqkb4qRWF8e1EuiEN5Z6Zyu/H69RbCDwqhQd4Fd9Ac6lhkiS8uD8ZFWTvBOMA3vs5gBoTBcUX0N9hLWLslhgaJf1LitX8PZ8sICgs/NEJPHVjXn8McghcNlGtoVX2T0qNulsGeGzTVT6lFZenKUOpr6sVb9pDyJJOwyJcgAAIABJREFU7/DAJbqI0Kc3wBXbBdpNv4iKNchGAm+vC3H2wjT2UcXeu2bk9GomxXB5t5iQSfF5bdakSWI2S+DW/hDf7xEqR2voizlqxsRDBlGfdiKscCOcNDuFY2ZRaTBznvAnWTPempoiXNWjSpQc4K5BH5d2Rng4ZJ4QuiwukNCeFZEXHZIu4XNzs3h9HRkHhmFUm3h8YPmJdjTBSijweJJomCm5ZhWnGU+lVL0nHihKfKcrxJ9HHI2FKDf06S6NIsRxjRG+siCHeUbixHV0EyhMy8mww5PkrT/uAxdvKyk5VnBcNAQ+3toAfIyqB7IpKCh2HLHQ7zx6quOTNFo/JesR11LoX1GI/69FgXO3BngwoGgRp5dj7gWtc+l3+wbD+PaKOrzKOkNVj+9YF2ia9fsKES7vCHFf0UOROhxa15ooLC0v7wMfH29L4w31KbRpHoMkE2MbQNrA4ZfQkWXjxMRqeVT1Oc0LRXQeLUlc3x3gjkHiXklhqRPgXY3AsS1p7JtxVEo96ReiZazlcMcl2zZluCPQD1d1c7yRmjXpFL4BfBpncokyELLcQK/C1RvbSNCmt46Q8zmbmvszJg8CLcjfigJnbw9xd8FN2PasfU58BnvLEr4yL41jmz1twVf62lPaJjv4pfK4E1n+1LzkhoEQ520N0e0lzYRsJZcAEvlxpMQp43ZUtojTFteqsHOMuJjIaosrBCS2hBJXbC/hpkEXPRWloBN54Tv4wmNeTkJqnzCPy/etw5HkxdsbYhJWZ8EBbhsKcfpzPjZ7VPZoRGh5ViX5Ladj6K8vcktYsyiHI2u5Lty+Zme8W/V7lO87HhVxtEtc1hXgu70CfSlGktjrQD8vCfM4f88avJvY/nZdhkEZCJf0SVzWETEPgjVv9G+V6ybvoTSAq1c24ogp92LQb2wXT+uHlXuSrDDtcBmFdJ8TwI8HAtzaG2GD6t/BeABmqjNnRHMPgOriA7yjJlSKkrj8xy3csbQVF5ABTxcjXNlRws/yHnqtPg+q9jwmQJJYDuqLklbcJNR9kT98w/F9ZltJjyGnYmuY72LvE2q688ehCN/uDPH3wEPJZVp5doKSNMs+soTTFqbx9vqUygOrJyb/r/o2Lnsq4QIc/GEkwvlbfWwNgLfVCXx6QQ32VRgvvrU2g0afuWpnfsLRsNNFHAzfG4hwWbuPbS4lDvVMV5RVNoQhzlrs4tONCXHVeLdP0lZGwGjjXqcunwslrukJcWufUN66wZ4YeU02CO1LMh1fJIo4garlmtOq+2L5XpvWBJQNn8ZQkBIP5AWubS+A0k/HtGbwtlkeFnuUUp+IHKpS4lh7TwoMOC7WkIEwSOX2XMlQzu0BmHbP72jkbo7VIwA7Tw+PAinSAo5IBz/tD3BBF/AUCQVC8hKLmg4BkSClBhKfbAjwtQVZzJ9E86JJnI6pXxJbarwpCKxI7acJi3BPmGFlVzFn2veJJ5sMnkUIcGobRQ/SXNZY5ZPckktPqF3xmu0hfl90EVqAzmr32Vl/rwsDfK3NxdfmJBTHE/gu1mM5CfFcBJzTGeH7vRIFj8Ndpo7WUJHasTm6d42Q+HBNCauX1GCx6XgW09fumnB95fwZAyGAwANF6rceqRIppmbW4EodiqN8+f81CZw9P6siRlzHPLlZm866mSqGKzojjKQ4Qlcev2Ca3AXFIVy9amf1YqgQVrHtwEqOFSOHYinF+L8AuLU3UG3Ct8i04g8wR8kg9ulnk3IkoNg+qQBfn+vh7Q2pcc8Qn9IkFkozTt0Gbx8IcHFHhCdlVoWVLRtCIRGo4mCO9PGJZgefaksz/0estZJ+IdNZl7G+S+PojCRu7QtwTa9Uc6Gig1YEhRwMokY/OlfEN5bWYg/OtE5CmI8/Wnouta7+2fYRdAUO3jUviz3TKWY2tPqj7Oz3pfvRs2m+/+VLpcDuKlHZHxvRhsbYVIJkqLy8No9zltRZDsL4JoL6i113rZUelQb+YSjEedtD/FNwxZwtY1VsRztki0URJ7Z6+GCLh2bqr7Pz7IGKgbNJQ47niJD4bzFEQQisqMuglUrLpyktCKRIEYSbBh0UTLvnihEYA+GYhow2EGZixce+5xgGgkC3dHBNV4Bv9VBJm6oDY+dCUz7SlB0QjeDy5XU4THva5cJt170Abzb9PMdwgrnoEhJX9oW4qj3EoJeLS7FsK9OucaUe8G/1CjhrWS1WkQeuNtzEiiLZvEKx+1HjkLM6JB6LVCJ+l39cARybKeLKvXJoSzSOzh6O511x6E11RnOAP1Ljqk0l/NthLAKBwYzHGM+1FV1YFhVx9qIs3tOowamxnJ6xEzupeeWaaIlOCVzdK3BVR4Bej/KHiftsqlteEQ1h3fJ67JtiBTk5guhJDWPci2wMAlGWm48J26sOm3CwOD+Mqw+om3azpspoQWwG6WVST6P2yo7EIIWXS9TvIMJ9BYE+hwDKPHMmVWZY90yZIxlVzSLCB+t9fGlBDRYkGZtRc8AGXIJRoZ83+BJXdIb40RAwoHOxJixqyI8IjPYWr4g1y2rVWqkmYjQqhdytfl6nvmIczSGK9Iu3l/DbEQ+DKW9UOIrGs8IJFbHY0fo8TFcMkEQbjFhZtyjGPupXPG1ClepToZ0u8pav6olwbVeEYR0VVSXEVvSEdu9bg05cv2ouGqoCFeOQqxWw4t3YHtKzAlzfKzDgZnV0RrtyZpkd6gMR4Pi6CF9dkMVCBSgz2me6sz32tBg+INpqxFGhAKoUvp/G48x5JLzUGVtLuGWQQIpJlaA9kt3HQFCHTKpOaRd1hvh+v4NB4wnrMJ/iPKd2v7U+1i7OoUV/Z3z1U30vTv0KO1yT5OPIOqW61t+PBDh9S4B/KmVnSCOS/GFM8qM9k1NagM/MyapGJBOv/ujnDkjgRz0BLuwU2JAi9Pzz83m1GMF1K+qxQnmCY4ROxhmWQYlTiRXVua/rJc82bvA65rfImj8qNYIL9qrDPkohmBMzwwDFalOrlofXiOrpfzcS4cwtAf5FgdlKngcK4+f78d0DZ+F1ykDYNTuZDAQqLaUqBjIQTFiRi7nYK6f/LigN4Jr9G6dnIJQFDgxmxxhwbBTRihGi+p+RxC+6Je7uLaAdWYwQOZG2DLm1d/I9M8dp5ThEeKlbwJo96vGKNAPnxv9YuCHJ/Ar3jIQ4r13g4YhAaQnFrwnh070WhCM4b886HFNjwNBshxtoXLVtMZ2/m1z0bb0BLuqhUmZjtpDydmLS6SYp8PHGACfMy6Kt7ExM4el6Hydl2IzMp49iTBiD92QKTxnjK2bDSEUmddtQhHO2BticIiZYU8+vI0da379icAt+dPBiJkirsvbmz/wUjtdR1cCjhVCd03ujjOoPY8iPuPEUrTOv+/5iBJfsU4tXkHOqZfWM7QEdNbfjiqzydBfHaq87nrzVvycD4bQtPr435L4wDAR6+f/4wDc7AvxyxEFBNxSylemsyMfFizP4SAMfjLK65ilO2JS/FntAVj5OI16fCSTO7gjx4yGg5Hq6HCsp8zPvRIGs14oCLlteiwMqUdfjLrCtSiT6IHFDdwkXd0hs95J83ZTfa0pflDjQH8Q1K2bhZWnd+92EV8oiCuPdnAE5vx2JlGH1H+5XFn9MZzgudZSoi0KsnUtsainktD1iPMPn2USIg0okSKml9mntAr8tOHGaIXkriWY/jyv2rsOHlB25KxIMwJAQOL9TqCoG20BQwfcY3EYphkFcsV8D3uAmgCspdTV4rIC0ktcN4pXiiJFaxNSmOxiq2Ain4IoOY3W6hUSfAzw8KPHQoMCTwwH6Uh5GUtxhlI6DoSE3TI8UTmeBTQ1wXFUfvlj6+NJcD8c1E3jOMqDH2mq2wQKJHmoh3R/gyu0ROpXnyF9irno2X8jgeG/ax/l7ZtFmqK30feK87TQ8umrHzXDSrJcSazfncXs+o1DnSrmprn90B0oLCRyRK+Ebi2qYG2BaioRPE0saXflOgM74PWcuSqdpiBTV9R/yIc7c5uNfMgdi+DPxCzJizVK+vNiHmw9oxrJJudXaDdcGAkUj8pD44VCIb1L1WZoTvAoYbjmm9LCm0McX5nr4wmzeZzMeuTbOhpUuMjgKNll0eL3aBhrn72QgkKy9ZeiFkmKQDv5REji9I8SdeWLTYuCEsflpd84vDWHdynq8kXI/Op+4a8TqONImRiwntimNa0g6+NGAj/PaIzzncJrB1DAnMH2gVgicMlvii22EuuaDXm3jJZuE35xoi6/tKeGyTomuVEI4NMV9s+Nf07Jij8IArt+/Ca/PlCN4bQR55c35kBtWexfPhsD53RG+1ysUDbCdLrENxVeEg7huv0aspGOiNkIisY2Sez72RaJ/eJWe8YG1HRFuG0ZM12s3cakJqUwrg8+p7lK7DoNwUa/EFV2MQWBPKlGsFK5WQX3pY3kaaJFCAfUUaIsUvqRQM2GDGA2g1KhQf4VDXQ61EWfSR/TflEPc7ExxTCQulPcfCgVGJFHsOig5adXCmwOd3HFOKQM9LEOEZPYP5V9Jgc+WPo5vAD6/IKs6pVbNB8fbhEL3Ev/zHVXyefsQrw/9OaGdZj79Of4wLt+zHkfXmMY4PLAklT2TpFx6EjTD4/d7A1zcA2wU3BrKGCi8PhL7p0KsnptWvSiYUXQalssoW6uK8bXjkmPUN+wnkGf/13yI07YEeFRyJJbOdmWE9KBiH9Yd0ILlE7xqmV0YiwtG2G8Nuez3ewNQYD1Oaet2zbptNUVPDsEwrlhej/11jwk+rRVkNzthDmwHogzApnEnPA/TzyQTBuGMrQHWDTpluDWaX3MGdp8Ug24UQjTBp3cEykAILLCd8SQWl4Zww6pGvFEj2AzAaTrnYGprqgEkVmlSrKccqfjG7xwJsWa7wONhupxC2HpgW1DERXvn8L4c1dDy1t8xy1AqA+E7PT4u75Do0JUTU3unKX5LGwh7FvrxnZXNeL2GjkzmbvzVpFSwXQJX9EW4tkOiXx/WyvvQmr8pXcSVe+Swt+ax5U6XtpqbOQ+n+nsl7/NMKLGW8tsDQEkp4+RD70Eloucv9nBCYyVQsPpTpnqFAin2SVzSEaGkUwwmAxkrSI3noEYz0ibTsGA3qjvqOF6bTYlly21j/NJz2AvkFuxG6KuyRV1FEas3neY3RgqfM4k5bohja0N8fiGBVE15V/Xwq3laSQJ/yAuctSXEf4ju2yQNNPGPiiDTXnOH8K19GjBfWx8qtaDz5KwipsXhN4ll5Fg6GQD/lMDpG/P4s59VPRuUP2wpi3kQ+FQjtwRuVb+fmoGg4gfag2VDSFNOWQbWVO89iReOgYr35yN8Y6uPR0QuVloxqFVXcbyk2IubDmxVBkK1t42lgn4P2oOPlCKc8lwJD8sapu/W8E5DwkWXNgYBvjLPw/9rdZlRsKz+laX2Tv/YpYozcH9lIGwLsG6AeBC4QkiZo9ar7EYGAg/u3yWJszoC/GqEajMtgarDPU1hEZftmcP7a7mzFAOfR1P8ztCSlRt35nDGZi//g/4/AWyu7w1weadAxxhlbmZ8WRHh+IYIpy/MYr65+6T3GodA+yhMGqcYykPzesl36gZOsv3lR2L/Uh+u278ZhylWLuNhTU6MkPAjj+GhosTZ7RHuVtUYowFRdGfSV3PDIs5flsF764hBLskFly3FpOdxJx9tS/j8myJi7SHuKFAlg8HfJ/5Mg1/AlXvV4KOmB/QuGDNhEC7qkbiqK1JESUZocgxA59Y1DoEyBzbo2y6FqhQmCq+nx6+UubqZ3U+ef6cUPEXU1PX8d7VjVH8FbovMM8Q3I3Ii+tl0DSQO+uVehPc0AO9vy2ARRTPM2CdhF5oIXL9w8J2BEJdvC9BHYGLr3emBdM/aMMRX5zn4cqunDBl2GK0Yn36ehWzYqZupzGeXlBIBLthSwE2FLEakplLX80fjr5MRjqkNcfKiLPZWGYGpb6g4yRD3rkhYWytTDcrrNFEm2wjW1NMJasL8cbxoRPJ7Akc+mI9w6tYADwkiHTMaLFFktOdeWurDDTqCMO7bWiXhbOCxziC82E8IJ7SxhK1eDZO/xUyIpkrGwYHRMC7bpw6voMi1NY6ZrTxK9EmyklqNl6V7prblKMVAVQwUQdj9QYo6fEkgxQs6fPxg0MGQajShiah02IeY877YGOLUhRnmP1BzaG2LOCUxvcOxQ1MeV02xyxHCxT+LAmu2hbizlFLkP0aA2aEuQxe8QhZw4dIMjqjxYh735BiVQ1RGHysHBFL8fk8JF3VKbNTEPFrMj66x3KEXG/tio6QNX4EZ06uiIVy9ogGrVElfLDknNq71ZWQgUCe7G/ojXEr5YIvLwR4FdwjjxkcfyJWwdlkOS7SByLtgEhpimnMw7hPsxXW4Ec89eYEztoZ4ONIlr/GzeY4WFgZww6pZONLjn6cj0Cf7WoOaSfHbfVIb4QYsqOfWKHc9Gu4hv+MfNhg4F25OaUwPY0iElPIxjW90QyQ9waYlran4IENiFiK8LBfhAy0ZvL7BUV3s2I+e/HlXoFjHAdW9r+0I8ZNB9qD4w2FsNQTJdeCXr6jFWzxqWqQVky1xrM1Qti/G+/2OT2OsFemWxDT43b4I53UD2xRYkcesqKeJClkIvDJLDkcGL8skzYHGfGwsTEZLlSSNyfPKrZySTB5FW2h/D0CqDoT0fz1BhKFIqE6FtJdJDNAImzwXzV5K9R1pSknMcpjch9I3yrSLG/+Y88vvROWuDxUinLY1xANRmpsN6VStvSUPDvpx48pm7DthfokXxE7P0hj7hINLekJc0yUxrEt+6ekJlTu1kpd4d62PcxdnMZ+ilDNX1TrGMo0lbXaOjGOqZR+3vCBAiqqxhEQHlYZ1Bri210GnS5uinOaUNsmrZF4hSQ+idFHMTJVs3uQYa7E0dSN6guOcKEAjwFTVC3VnA/BjQt9uCfEsAZ8qwjaVN6WGRJ+u9/HVhbWMPjYioYJdr/I8szfHXPW/HgzxzU6JxxV3RPkTzBwmRsOUpVQs6M1RttfnXV4el+9Vi/lGzU1m3nWYmghIHgmEyjfeXfIgiRDGMm/sEZt65BWSyhzTOEqRw0xeQUzv7at9WwsiCQUeXTcQ4eJtEdrdTLywtrp9qT+AdSsbsSpuljKZSas2hon/TgbCeZ0hrqYqhpQXo9ON2DHmnT49o/aTuft462M/3RiTybVJAs2I6/hvRN1LIMQKs5buUScF9vAEXl8X4ZiWDA7IuqD27lxpVikwq8yhBjo+SqHlTT7uE4wR4vPLURBjIBwq8rhq31ocOHYVWMVET/TcqRlZ9lzTvwm8+ceSxKnPlfC0zCBQ9frUH0JHZiCx0otUy923NlBL8cl97BlMRspud7IfKMpHKU0Hz/rAMyWB/5UiPBum0BUCXaUIg5FAZPWgoPhUc9pFa8ZFcwpY4knskXawJONiWdbBgpSjsFfGyIuDwZJ7LjxUEPgGMSpGSXM7Ww7SWh3i9+OGlc0TYhDKZkEbJGT4UpOoU7eUcHuRgJ/l62ciYrPCAF+e7+ELTZRe0B8L81QmFCc33bvFVWwglHQvht29zFF3nhqikr3eEBd2S6zXrZcqZ7NNBDipVeCzbTkVRUgoP/lkc9gnMRNm1CuL80TsKVHb4k2hxDmdIW7pdxCommX6/eg9YVK7dMQPcYs4a2EWr6t1uUzLvj4Gp1j3MCheVTrn4P68wJqOCH8eIzRvwF5jjWGyO1UNR0dKTLGFDRbKRRG+2CJx2rw0aqxSzcmoOwo1U7jrO30hLmkPFdDSFtTjjbGJ0jN1Ab62KIf5JhtRRoIymadPdgYmvq5cqLIg/0/A5FXUdpvyxWo0FvrakwIfrAlw4RJCx49Ole2ckY2+C6UYVDfHHg0ErTBgTYifptI0bRlrLNUMX2M8xhUo1nOMQjPXGBCi6T9CRgL19WhChKVpiRfXODiszsXL612lVJTiiz1PGgl5olXpQ7g1usOe+O8LEU551sczKU1NpnPaZl/T2N6WKeKSpTkstrJdo/1ta2ErWn2bc8OLPxUjwcTFEtbWRwTw1fUj+LuoYQPBsAvqZy9zI3y5WeKDrWkNfB5vJ5UnRoxRZBRe8p5SKf0tQuKREYGH8hEe9x1sLEn0hBQpI0A5KfSk0x+3mGHQKbl+FP0hY4GaKlEkYW7awT5ZgVVZBwfVeViVddFKwNQYaMrkVH8rRFi9NVQGQqXjY96KUgw3rmrBiup2oX41AtpypOgfgcRJGwp4yKlNsAe6HFnvKiwJ8jhnzxq8I0egVSOcK4HYM3VaZ+6+nGLwsW7whVDmqM8P5aH/UhAKh/BA0WNu/opzRQr1YKeEbyzM4HDVB5u/zGcwQfbGumLm5rgspE3HjQTPHwsCpz4X4HFq1mxtWjtHS6/kCUCwXEObCPGpWRH+33xWFmobxukSk6AwMQDenIkZBGwIJC7u8HGr7oJW/srM8D5dfgTjSahQo35zwxezOCzgkj1r8M4c1CHiJavOMkbXkYFwfyBw8sYS/iYIqpkQ40y0dEQwdWjKx5qFWby2dnSPsRk1DO2BWRpD/VNK9EoHNw0EuGx7hK3u6MoSUpBtQQFrlmVxPHXim1bn9B3b4AakSA2lihrnY4xHGhcL9ST/OjXFRpgBnbqglJBuvGQMP6MraY8bADIFsrMyQpMMsTAlsLw2i/2yDvbPAfvkUpjrOYohkYic+MMhah2zscASE88H8wo4+P5whDUbS+hJ12qDVN9Xe82ejPDhxghr5mfQoo0HjhGaZ9uHm383qo9XbOtP11g1TwWeAnDy+hHcE9WgqBkG6elkZJGkmCMjfK6JgIoZNE8Sg5C8U8VqSwf9kLh/BLhzoISHiylsDCh37yjjhLrSsrHHpGY2d4QxXIzcMXKDxupKAWo01ZCS2DcDvDwr8bpZGRxUC8UqStcG0sED2kD4uyCngR2tSjOLQIrrDmitaiBoFRMbajSuu0oSX15fwFO6vNHgD1QUS0e0DhIjuGivGhyScXW0bRJoyB07krv+aikx4DgxSHH3xyCwZFWLskkAl7WX8N3BFPpUV8Iyd1pN5iwR4eg65l3f30u4+TlEpa+fYQshAfHo1s4SqtEUET1d1wMM2Sx1sUjTip+EkPZm6E8ZIXFoOsBpC9J4XS33VVd869pQiHeQiZDY5rQjQZGXH3aVcEEPVBdBAyZLLksChVPbjeXfj39SYC7qqhYqT3gPM/8mj1tVQEl0S+DsbT5uGHAwrAmSJjNaWuf5MsQJzRKfmasbXO00gVx9lhKPKxHe9K2S4+COgsTZW4p4XGEP2Mi1IzipCHhDpojzl2bxIpXfZjU3XTVSfdTEg8BVDJd3RqqU1MbH0PM5aG3o4yQICZSkqRLxbMZqwH387Nh0hFAgOqnb8xpFzsaCuot+BCmKQxpcHFQj0RAFWJJxsDAlsTiTRiuFoF0oICqdB+NPx++pK1e4Eibp8lhtJqnHwVX9ES5pDzCiIlaU3+Z3YzAkpS8iHFIDHFmbQj15x7SnqYmUKukEUoQt0iF++h1xPjiOC0/Rv3Ob6Ih4I6hslMo8NehWiEj9jq5Rv9OkYoIqRoRQ1Tj8e+piGyHSVrii1nWpq5+L3/QEWC88VSJqjDryuMkDb4wCHN8Y4qQFNZg7KW4AM5sqJsRrL4ljAVgfOfhpZwl35h08FRAJHEXDdHmfZrcca88Zoy82EnRpINNlmJ3De4UaHzU6Ass9gdfUS7y7LYt96UUklIFw6jYfbCCwPKw0EA6iKoZqBgIfryR3pNM1PyJnbkMB7dpAUPtfP4DOK73HEV4R5y3NYrliudXUXUrOmZtO5tTtftfYVQy7v4EQc6pBWfe/HRL4ZkeoSgTJSq38UInVAifEJ5olPtmWwQKz7fSliZFQEa7fietkCh0ZaMPh2HsDga8+U8KjTlaF3ThHOkarZQ4PxNudht0qQxzfGOHE+UTjqQ9SnGNNoiPqL/Yp0bXB/8gLnNvu404/jREyrCSBlJKP6ky20zWQxOJwBGuX1uD99dTIRfsJsTM2MfCO5vCOosQXn8njWa8W1I99RzzWGilwZNbHmUtq8KJURRRpJ6515a2soAGHrXVtcgiJvwYOztxYxIMhAVR1X4mKKENrWMJXFnr4v1lJ05+dvjTjvL+iWu4W+FaPSJo1WftJyWYJzAp9vGVOWjFVqpbHRrFri0DpMI1et3FmBk5BXP539QX4b0RgId6JygPUSkI3blaC9lVkHC/NYB9I1Lou0lo4k+FkK3uOwtlGSpJWTAyUibc5nYt+6eCc7gjX9QoF1FT31fOlKjDUOCWyrlBpTE8wFTSNh9ZYfRTtLUe7Aj0BpMRNKpuuImwNXajeVcsxMiQ4+sGkUsrzV79K1B8ZGmq+VAkol5OSsqJ7k+c+HEmlrE29OpElGVry2tDHsQrIXYulkzEQ4r2pIXySAIjAAyWJmztL+EvBxXakVH+CGCOioxXK8C3bZ6yFlRTQG5qjR3bhazLXtoqlKpHZTohDsiGOm1ODV9c6+HchxOqtPh4UzINgPnY09mC/DzetbMG+Ex6gWCDp2xCewsH1wwJrniuiL13De0DvO3oUyUsa07tquOvq4hS9RcpKZZVJgRmUNjNza8IgUIrh5hdEikHNtdB5Jsp3UbvRAm4eynA9vLUWxjolYMuKVIgTZrs4timlw2mM1mHw4kxaeImQ4qdQ/27gsj6BC9oDDHncodveyAYERW+akLHoxSdhA4mD0hFOmZPCmxsoz8r1tsaW4A5utEl1sxbtpZswA3lFt/YEuISiCJJIppiaxnwqLe8d23Y6qWE8YQpFUwguCvD+Rgenz/ewTClonRKK+UMmPkRdkDhlYxHfzafhp1IxUGyyeAnV2dOlOXPxPgUiMvVMMxgGLCv9Y+GtlAGAhyOJbzwzggfCrArfK3FpjD2tVVJC4HWZAGctyqiwJSnDXfmpBCnSsw1OwJQ60o404sYQAAAgAElEQVSeXxrExfvV47WV3RytYzVRpGeEmv0Mh7hiW4DtqRomWdLzYY4m/ZeUXoMI8MU2B59rTaNR+7Fsz+onaDCyEQRKvcZUt9qb04bHREYw70aJ3gg4rSPCTUMU2dBxCeNc6LCbaddMypdy8HCEInyiy1TzODVAG8RnmyicqlGRF5Ne0Y7CqBMxSkwlv2D7gomrVIhdG6K0XvQxPV2obwl7/0BOBHh7Q4TVC3LKEx9/exlMfznZD6VJHyoJXLm9hL/kPQyoGnlSjYZd0o7UGKc8YeGkdWmgqIAIkSY0jgYil5DCkOsh71BXB3OPpHyVIjQUOc0KiVVeiE/NS2O2K3H+NsYgcApDz7Gl71/m9+P6KlUM5dULfA/iwbhyQOLCrT6GveT+KoKk1kqC0pjvSeVx3rI6zCE7V5e5jmqhvPM9rxkXCWQgnL7Fx3dfGFUM5WqMrLt7ihJnbS7ibxGjdcf6UM6SlOr/m5PC2xo8JVxiA1/lDdlQUEfOHKLKKMNUl4JvGlu2TwqJE57J425B+GqNKrYVqirtAUKFPRh9bOk3LSLE+xoFvjQ/gz0VxS2LycR6rpQmyc90gJ6KJM7fWsBP8mkMOxOz0icRMnssthmh3b1YwZWbGAQ8OlAW8c2lGbyhNuniOGo64yEa8Zw87zd5iS9sGMFmry4WdjZA2BEScwhkEoToYXJtbVxx/TwZWiSIPlgb4NQlOSxSFhmF7KejdRMRbotqYwgqG0Qti7EUpAq7PiIkztiQx71hWjEDmvll9gOu8af/nReV8MX5Hj7Z5ClgVmxFTGfIO7CHTbOmq/u4tKsS42NutbA0iGtXNuCNU2z3TAYTEUVd2BnhZwNSsTYacKIBJZr6eFJ0K0Qe5+5Ri8OzSX+BcvUbn6rx33aUsi2/1KxsdyRxcnuAW0cogaIVn/aKlRFjfW0swHr5SRh/OCadMh7ArmwbTbCGxiAwjsVYY1JMo3CQEQHeWi/wjQVZrGRiwAk+ZsJYRpLiflK3jv/1SAq9qlmWTVRKMlW3nFathvkMEJ/LXPjYPy1w0KwsluU8LMmhrKtmXgJbfYmtJeCp4SL+nRfY5GQwCE+dHxsHk5MRDkiHeOXsLO7pifCPgJ5ZHkFQol5VMQzgxpVNVSIIZgoU7Fa9a0ECl/YLXNweIJ9iEGTcsEzfOy0ivN8bwbnLGtCqzgE5sWScVhiVO3D+dodLybbud7iK4caRlAJRj/XZfYiSdIhObQJTLug4uLEnwKXdITYR01nsRfCmV6ErB8hGEfZLRyoP/e7GFFpULlDn0jRQznzV4HZ5MqZed8611HwXEjCU/1tH3Qg35NHp1SpL00Q6VAjOAWYHJRyx0MPTXSX8S9SoXDV9DKkMB9cF9ktF+NocF+9udFGn5iN+kEmijbvHFD1pSeKbmwt4IMgib5ENUXhQeRyxW8tiTtX8aokXUbbEcgvNd1S+VCtkE45dGBXx1UUejmtMo7mKw574KjqPKCXa4eD0DcP4bqkWAcOD9Wxy+Rqt7ZywhI/MT6GvCPycMCnEPe9I+JbEpXEdTB75vDQOr3FVfXWsnadq2Wu5aXZRslP4D9xgin9Lwu1+6r2xMY+/BFmUqDOazeNurRZVe7ytTuIb8zwcoLhf+L3HNn9nRpQQSPHCHoEruoQiSqIRjIpoUSOpIhsIh0/RQFCgXeng3kKEs7b5eEx5gUlY3ChHY8aSX/kmr4iz9qhVgDM1N3Hs3xj6ick8ndmhFspfb/fxo3xaIdrpriZUbowWUrbGpB2N6ZnO03fed6lZVeBIeJT60O9B7JxH1kU4bUGOu8OO97jYwTGuuQRF9G7opq6GwBblz5en/AwxkKp0cSSyIsRyJ8TRTR7e2JJRFSf11NiIqlBit4bPjCFTIsOR2itTCurpInBnVx535R1sdCidTFFEIxclGhGg6KQwpHL/5c2ajJF2cLEPN1ahWmZpr0ehcQR5AJf0CVy2PcSQxyX19GzTl5eurpEhjssUcNbiOsyi/hZxE7qZpFjeeftjoju9sIiS1Goz0VAc8oODLgL9bS3hxmEPvWTlVHgISt8poJzEUvj4wCwHx83OYE+P8n6cJOXslyVYqngZk1oePV7eyxLb4eDEDSX8vJhVSpgCHrGBoI2Fl7tFnLIojX+MCFzaA/SQlxmrRVbSJKhrohBHNwBfn+fhwDRR0Y4CHYw7RIPQvrcoceHmIu6PqL6Xmuak1HiU56ZvZwwXdTOt0AxKODYmKp+kr5snSvhIawqfak1jsZrrau6vVtq6vIhKo34+InHqxiK2pHJx9MB+nCcivKVW4JS5HjqFgzM3l/AvmQE1bKr8tIoAn26M8MUFOcyO85/VxjT2NCbxA8uV1C6bwhro3USKhYA+fyxIfGuLj4dCD4VxlCkJH09IvCTt42vzUjiyLo16td+1J2Ltg0ntv2lcRAbCJX0Sl3Ywk+JMGQgcMJHoBfD9/kC1P9+WquFmS1aaJj4Dkvo+EA5H4gvz06q3gtqYSvGVh7Wr+cXVpqeLIgjbA3xvJM25/bKTSH0aGLRITZsY0V4Oxax2/131dzIQyDmJUy/KYQrx5nqB0+dnlYEw0ccYQHQNsQreNSJxcWeEx+Jyad6f9Iy4x4lOhy6WAY5qkHhvWxYrMlRhwhGFsqTGKOcmcdxozDTPw5BYHwC/7fLxy8EQG5ycSkPQx2C4aBvYRrTdrOklxR6sO2B2Vapl867GAKH3vbRP4OLtoWonrfAuOh1kogkZGeIj2RLOXlyDRgITs3vApk8sl6cmZ3bVHhnvOTZIMdRUy5WOwu4TQYj3uLVltbHwlATWbCzgF8Wsqrk1LJNmfZSNq1wAidnCxztaUvhYq4cXpR0Qgy1dx1wAdji3TA1Mea1ou9Od/hAAn31yGJvS1HWHP3bTl8awhP9rc/GF1jR6HImT1w/hblGvgD9lCCl9KKhD3YlzHHy0hTnVeTNWx80qNUxtbB3g/qLEZVsL+HOYxdAO+ahWCEHnPs1sUT52qePjvbMcfKQ1jb3SXOtc9YjE1Rf8Kk8JYPVzJfzCTyPSKH9aI2PAUFRgD/gqkvLelgz6IupkV8AP81mUiETJAn7SsxWDXE2EM+d5OCxLUYQpL6mebL1rtJJjQ5PnhVQFgbieDSV+PiBxa3eIp0QaoUoblc+dGUVaRljulHDCnBTe05RFM9V8WxS2HI1QInE6A5/UdzmCwM2aZtRAUGV/VJrm4omiwEUdPu7Ip1TlhFo/XaVDiSMFoNWdE/d2QpyyII2j6ihEXW5E8QmYerzFSJeeCDijI1I14BS1NPntMswQUS1DqCheYsaV5/TtyJiZ/CTfnUSI+O346WPfYTLXjnOPmPuFhV1ahnhdvcCX5+WwYoIUQ+wn6WoqYrG9tMPHbf0OBlPcP6Ys3adfsFYQ9ivAca0u3t7sKUNOOTF6DZV3ZInXSn8sAXebGJyjcBojDvDfQOL77Xn8rphRTJG+xlEZI9ZmODSPOKjUg5tWza5a5lgp8QlrceWgwDe3+BjxsjqCkMhtMiSor+gHa0OcvSCDNt0gsDzyvDO8zUkd251+kR1BUE2qLIyHedjuZSBUWGZsazLl5n0liTWbC7jPzyJMsQKg8p/yEkiW7ZSTfnWDg0+2OHhNbQqzVEcuvT2Ukk2E+EQQnolWRPvDyusfcoCLuwKc1yVR0mV65qxwlFTiAIdKGFN4Wz2BBx3cMhBizZZQ9WlQxo2tV5TCi3BETaQ6sx1co8mTJkUEYzISzMnwjwD49rYCfltKo0+kVP/4HdVBCrQjgTpHYH8vxPuaHRzTnFYc+CoGMgmdZteHDzrATb0hLugQ2J6iEK+V4tD3aowIiyHx5bkZ7JNmYptb+iKsJV4BhxRMGbZdBTDnCx8ntQIfb8uheZLjGnONY2HHXpNJS5FCJwOmVwAPlgRu7fLxpxGg26FSRhOOrlhIjYTexwnwf7MdvL8lo/rWc1mjzW2/cwzWyUgRhUHoiPCtPjmzBoJSXBy4H4GL3wwGuLRT4N9RWuW6SQEZTII5AOQZ1kqBt2R8fG1hDqsybA5w1Evv3WnIZJ5lgX7h4ryeCN/pFshrg6USi0Eg6JdnQryTUn1Umqi5Kux21mZvqDbXyjg3ZgAPUvmcJmJimrFZeCq+3qD+2UM1v1P7Q4Mi1bj1tby1NfWz6q6pCa10q20qO16YcfHi+gyaJwQpJhEyarX+m8FQtQF/QnhJlC7hZ1JRQrr3qlSAz81J4SjCfOk+GHHDNXV+Nf+JPoPlO9s6XDpJx+eAzxrti24p8bMBgRu6Qvwv8lRPFiOzjVNoZZtx8I4yKerXJqP0xhGJ0zdSFUN5DxuTWKEW2kdlA5y7KIs9VB8G+23i1Z/MsdvtrqHI3plbSlg3nELJaoxoD3Q3MhD0wTK1zrHXzAuSh4M78hLnbynh8SjN/Q2scJD9UvT7jIywXyrEh+Z4eHOdh708iaxWPsZTswj/dnzxtCAgwfC0lDjx6RH8VtTFNc3xDSW1dA7xrlnAyXM87Ed5LABPQ+JrG/K408/pxTHd0xIMwCJRwgltLj7eQmjeZPDj62P78LGAIuPqOSnx404fdwy7+F9AxCdMcDLeh4UUS2X6N5USLnQFDquReHeTi1fUp9BERpeSfGWTOo6+NZ4Thyof9iVO21TEvUFWraPdxpluQOJgVSrEyW0u3jHLU14k3eFvAfCVDSN4QNQpginTvMeAmyg1c0yjxClz01iZTnrH7/jiGsGp/U3Fvy5RgoONkcSdgwI/6RN4vOhgJMUeqMHDJIYhe7rElri3G+CjLY7qH7CIxj2KEV4L1SkNdMe/RAbCeR0hvt2HGTUQjLfOMAIHGwVwdZeP7w8APUhrUh22jmkbaQiYItFZ7IT4v2YXx89mICcnGcxnEhbpONPCXT+5HftVAxEu3RpgIJ1TYWND4a10sarskHh7LsS5SyjdMVVXYsfXZ0e/UWkv0ezQXJoqivHul6TKgK2E6O/ysY74W1KM6FcljeqIa+AvJJbAx+dnuziuNY0mTXXNgsICgmuCt3jG9ADj/VA2IBb0ieRiQ5tSyz8dELi+M8D/BO0VjhrZIXBTeXNQMIAbCKSoDZKJ548Hw9U6Ej8tSJy8oYCtmgfB/q6aRynxGreE85dlcWDMV2IeVJG63tGFe56vJwOBQIrrRihSs7uDFM2pjBc52fZq+0iAPM9fDkS4rlvgUd9B0fFGcwzorymvQwjMFRFe3+zinQ3AobkU5qeJ8tOKpUwL7c6lMLePRDjp2RDPphPGPKMwaJMtkT5OmuPguOZ0zGxGKYCfDUc4fVMJz7o15oyVhc7TuhzujAVpHFqTUjW51dH5VkG3OnvsqREb2j8KwD39JfzdT2F9CaAwK3FOUE5fecAanUjllV4kMMsD5ngSKzMOXlMHvKbRwxKPG60YEZ3Y0xOZLWYtJdqlg291+ri+z0WXbldbdk4kFJMeVXKcNC+LfVIGJsVtrdduKeHaYS+xeC3pSIf5QDfEKXNdHNXooXaKeiQJBbOi8CXQGQKP+RJ3DEb4w6DEZsFNuCo/pqyNJoiavOzlBfhwk4v3t6SxNMVC2ySK7OeYFNKukBnUUIeplmc4gqDxAyY6VnQk7iX8TWeI+0sslGjLGe/QNviyMsTL0wJfmpfGa2sdmCp4Y2pOcWl5eqVE3nHwg5EIZ2woojtbpxRBnGbQi0Bn+PVOAVftXYNleqknYyZYwcpJLeeOOCqV18Y+bMwPYXnvVRUmzyZxNTxUjFTjqnuLlFpg7JZxwEj5E1YgJ4gTwMcpi7PYyzVpW06NjOknVIv0xMB0U22mWy1rmbUlkrixN8RNPRJdDjfuKyt/1sLnpUEfblzZguVV31cvh46K0Nzd4wt8aX0B//WoIwR/uJycos58/leJEVy8Vy1elWFHIPacKgFxk1rt3eMixQXiODEPAgGr6dXK4zvcrGzt0gyOacgkfSh20Ss4kqHgyceEs+wEVgK/UcpuwJH407DELT0B7hlx0U9ENGNIC0MXS6eeSmb29SIc2eDiiEYXB9a4aFUb3ABqLP5OdS+T3NDyZJwoOg1+CMB5m0dw2XAOBUthmBAVKfnXqlSBh1fmOCTPYB9HNaYiYqOb+5hB0OTf7Ulpi3x8vs3Fp1o8zE1xJQFjERJSIH7/MdItRhnpXDdVOBBXwkZf4InhAM8EQLd0lTc1HLlKUGRciWZPolEILM0Ae6SB5fUZzEtxyZJRieVTnpgJPBJ7SbTfQEKZmkoNRcp7/VeUgA0Tlj4C8gm8OB3iq3MpHeOhLr4bC6mf5wVOejaPLWl9oHXaxTxzduTjE60OPj87g4Wj8q/2uvI34rHag47roIH2UOKRosS9AyH+WnLxZEli2CGGwDE2nQZSkRCjrqP7uz4+3JrCu5ozWOIyz4UWQZXbfjJZmp12LIeFwMW9gKJankGQYmwAWQyHxJr5w74Q13VLPCc81SBHTb2eOwqyExERhXKbqXVxvcTn2tLYL20ovKcXRzArQMRGvytGOHlDERu8OjX/nH5jxaCUESmHcBDXrmjAQRSqjx/N/yjfTVOviNppC6v3sHpHLVqrOxQA8VX8YrCEb24L8ZzLPQlUcDBO7fC/l4oizlqSwzvqTC8Mfc4tAK99Kmw5ZmZs9LuaWUzm1JwRwvn8KR/hzC0h/ik1r4wek4ps6JtNiknRCKb43Tg18+9Q4qSNRdwva+JeDKqSgTBCehoXhHmcv2cO78xR+S13H+XbVLOAdtrKzsiNCKRI7Z5v0t1M6W0q+Wd2LwNhomnQUoT+MyIdPFYS+F5PgNuHHHTAY4GthQx7JSZkSf91QOQ0TU6IlVng1bXsDR+Qc9Dq6CoBTfOs90956Hz0TtebU+I/wsFJTw/gbjTE3rq5B52bVhngEy0SJ7RlsUAzz5lcJim8BwOJU5/lagPKtdkf2oY07henQqxelMabal3U6LHEiGKT4LTLb8abR634KPfmQ6IogaJ0kBdAPiJaWCDrAg0eeWwSNS6VKtGhSPLAY986JgZIBGcFUySlFh4PgAvaffw6n8IIhbS0NDEGAv3YhhDHNQh8fl5GscCpGYlDlsBz0sEJTw/i16Ih/j4HKflD2I031ghlkB1qsBvxYbYkn73ett6mUlCqnoHEwyMSd/WXcL/vYUMRGHRTcW620tLWL67GVBMJHJoJcVyrg7fMymCuSivYJty0/N9pCwvVi6FXzriBwANNDDEGeDpYH0rVsfWnQw56FUMfA11NfW3SWVFiqRPi4y0uPtTsYZ7xWnfC9JERQjLk5M0+7o84/2wLR8Nf0OaP4JK9a/HuGkppsuVgIh5sl1u7b5rRyGkv7BRuQKtDkblre31c2RFhMMVzYYfyKdVA0cs3pos4b88a7KMYIKfwsB38Cjk0D+SJSTHAwyLHaShjvO2ggVBxxLX552BrBJzeHuC24RR86vtjlc+b7xB19YlzXJzUkkJtbBxUupE7+HK7weW2gfACoFqezIxpbxTECS7xVCDx474QP+mT2CA9VRFgo5CVOlA8x0x1yh3iIpXT3Dcj8bIa4HWzPBxEEQXlOXDSPbF2bdVTOT5HAeduG4pwypYA2xS1cnmIhjbzSi/E6jYHb2/0VEVFLDN1JIF6KNzQH+K8bQE6Pd1MVBum5vLaKMLR9RFOX5DGcs/VFRn6Xjp6MGYYZcIpNXPJG52hZBxAjYFjRgpUjYEmOUQOjhjzLJmPHilxU0+Iq3uAzZIVbaWSpcznKzwfqxdk8JocNTDifHH8kYDvAN8ZDHHypgB5j61+XjC+UDErooRT5qfw7kYPDSbaUkFsUnZTrcTIiKGozsNF4J4+H/cVHKz3gWEykTQlLj3FcBuVrbdeM+o0+rbGFD4wS+KQOg+zKLet34Ev2QWStcpR4m6OEacYNNvjTPAgmGHQe8dmgl7DB4oSF7UX8Vc/i4KTUtEVLtfjEC/3g+BIzEsUEZqLNzWkYGqEpj6PCYb+uVBibUeE24YAX4G0bDXCYyFOgROagNXz08zSGa+h/VbVm5JNRrrt+mt4LkhJnt8d4ZY+IvziukibkInmui6K8MmGElYvrkW9mobJpDun90a0Hx4sRKrd898ilq9jfQ7W3RyXT3C0zGoZF8xIrCEBfGtA4pLtoarcYBnCdp/ZDWQcvTVdwkXLcliqIl76JI/eLtN74V38bWJSXGN1czSy364Qe0FEEBJFIsqaZZAXsDkEbh8I8d1eiX+HKZR0/szMtVHxqq5fqxEG8Ag0QGAfT+BVDSm8uTmFF6cdRfgT+/FxXs++W1L60wNieizgpnwWw6ppS/knJyK8mQhL5mfwYo8pZePYnTpihGBwVZhr9ZYS7iyRkZOARWyKkrmihC/P9fCpZkIOVxSRT5KzI8l5J7vf8Dgkb5jcrKpdYL2ubW6wGkyMKwJK3l8UOG97iHsLriI+MY1QlCDSE9eGCCc0C3xuTgatxuM2TVFUSRxbb08IiY/+dwCPeqR+yz90uyaVZnDxhdkeFmkUt7quzPhj74/enwy9zULiwRHgTwM+Hi2l8GxAhgH9nVvZMtDOKAijyBJBQpGefR0fH5mbxjH1KezhEaETV7DwK3JeUxkYz7ORYFMtU8mhEvdjCNfpEiXFKxNvVx1pcoABOPhBX6jImjZLTq+Vdf0zlyoa5lAxA544J41VGY5oTXUOOaDNoLseANf2h7i8PcCgl4vJwgyITYWZpcSroiFcs18j9jR9IWJjM9EQz7/ZNzXtQm/wTCBxFrFdDhN4j71o+0Nr0xT6OL3NxafbvLjb51TXYLIjDSXwt2KE03S7Z5tq2b7HoUE/rt+/WfEgTPSpTMtShpsiqbcTwd3GIjama2Pny7g4bFg42CMawaX71OJNaYW4YFmkCf1sB2Wy77Y7XGeolm8ZdkFljjR9pCcVoZWeyxeEgWAms9zP5YWjqADRpt5XlPhel497Cw763XTMxhVbwpZ/YHqO00RQGQsh8vdM+crjO7wljUMzUKhlQ2+qVIPGDTBpC+u0R4XEV57N476wRrGY0X35eVzXNEeG+FRThM/Py6paYaMojEbkNXBUJ8YfDIVYuznAFi8pt7HjF4otEEVctHcNDvP4/jGyu6z0Zge3nq1hdTQi+ZUZYbWDZ97NqptWr8aaoQPA9d2+6nC5FVxfrWeJVa4knIjEq4lFb1kOBxO3gqXRk1psHhlhGU5r93Fln4vQ0waVYd5R+f8Ib85JnD4vhRdnqUTUEHCZ1uGRUvoF6eI5Adw3InBXf4B/lhxsFS7yktj+eJDUkpv0QeJh61CBNjbpJyqBe0VG4ONzXLyh3sNsVeGRaF1jhCXy6/lVJ2QgnN/JVQz51PhMOouIann/qTMpVmbp7VVXqYZI4tzNBfymmFF8/+bD0T7e/WQkq8Zs0sdn5qRwXFMabXSW1BGwduoOxbyTffSb4QBnbQ3wjIJgJVEtRu7zLp0b5HHxXjV4Zw2lQhKjwIqbPc8m3w6eeety4h/4ny9x5vYIdxQIsKwjlPoakq90XucF1Hk0h/fWs4KcKePAdsptA+EhwiyN0z3ykMmUOcbHNjm/JEPpXFOqafXmEv4SUWI1qX6iK43RWkdEbK0uTpnjUTI5TjEbObbjEdypr9nO+GZCtRzg5mHnhW0g2Fa/0Swmj29Q+sTzvSGU+FVfhB/0RXiKvJIYUGJpQYsrKRZI6ncC9RCYI4XCKRzelsHraoClLlRqwABSWGxJRZP8wwGBMzsibBK6Lj8GWTJrHtE/r1aleikk9Q38fd6m7FFG0sX/Qomztof4xZCDiFitjEdl7eeakPLzEdYsyXItvVFCk6UW1tNQGTUY7Y+x3WxzTExsKvD16mO1Q6UffSlxb0HinI4I9xWpVawGYli7nO69RPg4dYGHD81KqVCu8bTV6xsrQmMR6K+/CyQ+898RbM3UM8mO0blsC2AlSlizmEpcXZBfYAy8UAhsj4CHCgJ/KwCPDEd4OqTaa4o+0S4ot14MAUxYzjirRk/leEtEgHc1eXhPq4tVGVeBKklXxfOluQCS+Xt+jQMat0ox9Ahc1S2qphiuWdmAI6ZItVweczHRlyRESyC0O/MCZz1XwBOpWrWFjJnATYg41aCYDqn1cibAKfPTeE3OU+2f1XabVGVPhUjVm4r2zb9KEmd3hPh9XlelaLvA1TX59Gwqd3x3toBzltVinnYUkvUcZWHvDPm9i+7BLtd/i8AZ2yP8rpgYxnE4X7/e3KCAy/auxTG5mVWF9mzS+lCKYfXWEA9H1JBF8z2Ybpt6liaTYlB7Rd/BmJ6qiRQctBMmpyfETd0CI9RkL2aV5Rgv9Z4gM3qlGMGVy+twSNxHx5Sm7zi3zC5a4AkfY4iSbhp6gRsIamnjGKjWAJJCv1rJWqhz4vd+qADc2F7AH0oeBlReyfLFzdd1KsGw9xkdxPl3CcolL0mF2D+XwmGNHg5rTGGxC9WbnizPDjg4Z1MBN+czCrzG0ooFHFmllF54U02ANYtyODCmGtR2d3wKKDLBOdcRALeTN7M5wNMu59Yrc27EOTNfFLFmcQ7HNXK5IZUmMnRCh061ap3cBrTt9cpvaMtk0vKPF8GMxZgMzwkHV3T7uLlHos/JjJIudNbSkcBHaktYs6QG83Q4PxlNEr1Rvovus7FFujhxYxG/KlKTlYQJz3yvJSzipAVpfLbJU6RJ/ULgn76DP/ZFeHAowLOhoxrR5F0ij9I7ROMVyvaLZpLkPhSsFmiPzI1KOLxO4Ng5WRxck1L0zglxNls1PHU8jzo4k/TAndwCzchVCqTYp0GKE2EQ8oO45oDpGAjGRDA5+jILVRltfXBw2bYivj2YwrCTVh46GwdJ6ZsCB8JBrQhwbIPEV+dlsEwVL03Rj41ThxI9wsH1fQGu6hDoTjGbnvIcLTuOFMmSsIC1S2vxznpNDqY5ADjIYFVDzciKzdRNWQE+WQJO2x7h9wVmuLTTPfRkojAmAiQAACAASURBVJtuCQq4aI8c3ktULzMcLzEih86lASn+ndo9a2ZHWqMyquVCD9YdOBvLJ4WLMKdSm3gSKDjAr4Z8rN3kq4oWEzWguaC+LtRym2j7icL6k40CJy/MoEnhZGIvzfJQZmqtdu59SY4OOg7O2BZg3YADA1K0mTPpiS+gFMPohY1Dt3xK4xwxNc9ppzKm3gjrOgt4DLUqdBaUOW/G3WfjQfVNqAAZkvfoighNIsAcR2BFnYfXt6TxqjoH24WDszcV8UBADUbs4j8e52wR4rN1IU5cnEOrSebHoL/YLY7DmrRgW4SDq3oC3NAVoZeoPyvAMvSOFJl4GdiSfZHLbWAT+6na0R3PIBilyuLdWDHrVXdpcidgEMBPByKcvy3C01QPoRjRtCVvUSu+1B9STYFe4rLHaFI0CXGeVrIWfRrxqF81KLFmUxHDFSxoylCTAq+td3DMXAfPDko80lNU5Z19ThqFFLOz2YZAMtflxqR6YRIUOtTdIAO8Mitw3JwsXlPvopX2jgVaUqBY7aGyf8K0s5Pgk6o6tzvrAlPFcHlnBD/F3frGBCnmB3DNAY3TiCBYgaU4f68tdG3s0Q5+Ukp87WmiHm8ALYs6hyqVxyFgUwJJ0zo/HFFdOz9Qr3kuKiIIE5m89vyZ6wh/8qeREOdsF3g0pLlImkmRYaC6r1ILYinxOreAc/eqxX6Ea9GES2wa6D27sxZoF96H1p4wCGu7Ivx8kBuPqbSO4kwkmmwezKywhNPagM+2ZRMemRkOhtG8358PcdrWAI+IXNleSAwEBwcV+3DTAYxBmHhI1u6wnDR6x/8UBNZsLeH3QY5Lb7XjRmfbtECn3+0RDOObe9fj6KyjWkEzivqFuf6qF4MFUhxr273gDISxt8DoBaLfkBLZJoHbuwLc1hfgvzKnyJY4v2l9xllfm+GPhBS1/qRc1FwivPHS2CRcDMd46yTGTcKDqHXPaHVw7OwM0rEyTB6kBEvsULGYCQiUU4pUOP7uggZcJk5oPOD6KMKnm0J8fT41JuKacfbeqxkIFhAjtn7NbXlsZQK27DzxD2M9oRy8x/dQ+cOSwNptEf5EqYUUM18adLBi4HWBRvLMFubwySYu4VT3ijEVrFzjiklLpdOU3hNE+MKGAv7j1sUZDntZqXNijYxQpLl1qVfCaBVhIFnsNZj10RgPxrIp44D62x+YCnBss4u3tKax0KEIjjExtAEz6oTtnoKjEoNQiXk1r7GoMIhrV00HgzCepjNmJBtQlGq4owisfmYYz3qUEOJUj+pyyg12NXCYfh/hZW4Ra5fkcFjGVWye5QBLkxgbT1WYXn3JZtgQAJd1BfjRgMSgyxFHVhBC1b0rZUSdRaMQn2gGPjfHQ5vZK4ZiucyZrEAnVLFaKs+PnZpR6kdHPLh6hi2m5C34PTl+yA2l1P9MwlIyu3NrRL05QhXly6dM8ypuT56wlEb4bGOIUxbm0GApRkMqZFIuiRSppqoT8K6ROrHO1uOneVdVDNtCPBhyiqHyQ+vy0lI/1q1qxr4GJ7bDBpZEn3Rw80CAy7ZH2O4w/T33YjBnm/9LHUcP90Zw1rJ6ZSgaPFvMJKmfHaM0qoiAykSufbmaDw1yVv1fpFDnIqvYZ0fjQDiNaqMoxp4I9QwJ9DnA6VtLuGkohdD1VCkrOwtsANNnYTiCtUsyeGdDWpGVJclTe6XHMLxMabrFgTIJ7VQ24NFESTu8sNW/QC9MbT2fiiR+3hngt0MS66WnuBRosmkbm8iB5TvGN+Ye66ykaFJNWd1o7z4ZC5VmHZb2sXZJDQ7xAMIUKnFUcWj5eYnipX9RiuTHAwEu6RRYL5mz3pQd2oDL5aKAs5fl8LYaV3EWjKei7Mcmy1uuT42I4TewSyImI+hGbw761hYhcUVviOs7BQa9bBy2M2Ogd6INeUSmiEv3rMFedliZT2dMCGUb6CEhjx0HI8LBE4HAWVtD/ClIsyFhofF5bhOjbUzdbU+IvsB4qzTXtI6zXIH9XOqO5+Bts7PYyyPCqGnSOFfftjN6hapi6Ahxdf/EIMUlhUFcPSMGgh1Z4L3YByp7DHAjKWlKRcWKMCl7pNWk/8sKH8fOAlbPy2KhOlsVUngCRVGGZFf7RWJYAL/sD3Bpl8R/QRUViXKjKKIy3lVHVoGVro8vL8jiqDoHdVpIq6dbW608WpSovQn9W31ZOb+JsUA5FWnOZgCJ7lAik3LRYlddqUviG8XHebzNZEbWJ4Dv9AW4fHuEfqrmUJEbnc7T8jEtgCO9EZy7Zz32VSDR5NzHhaNqkHoiqkQXjMTitypPIRtZRhEEYnj8xrYAD4UsQ4wMNGRW9PNUejFUzgkRZz1YFDhfsUkmLJ9xitAScxQd/lgT8Jk5HuYrbg7rZfVWZIycxmRNMBfxztVGIP1s7mdwdgQkJa6KPw/6GAglXtucxdKUw46nAtDzCUjq6KoZZ/z2VMVwxhYfXMXgKTAwfZPm1AD05wfDWLM0i3fVZxRR3pgf3VSR31cL4jgSbPVPGUPeTiTodomBwAqSLaN+6eAfBYHf9Qe4v0igxpTKQVLHMGUd6q5mtiWbeJVJiZYJKo7ptlLODhL7p0O8f3YKq1JAm+ugSRMQEeCRyDZI+dCExtxIOgJAxshTocQVnQF+PAD0aY/GMKNp+LZC/R9T42P1oiz2I4ZFS0hVluOpRbCkWJnIqjBa4kvjlas0gW2jQV+k7pFISMJT/HwwxNqthKeg3CF7NMYbMQbPYlHCmmVZvK/WUSFcAxWh29F6BYrEiQwCYERIDAkH7aFAuwSeKAFP+i4eHYYCGdmxDdX8SRsLys6mDWy/tDGENBo7eSMGpBH/Agne/dIBDq938ObWDPZQTJJUXWG4GapIwBlV8dO7+aAQuKBL4Fu95DGOX8UwowaCUgpaPWiF/ngEnPZcHvf6WVUKa84XM9exj0wNs2ht50UlfHFhGh+elUJTHGOoFj2w92vS1Iz22hMliUs6S7h9JIURQpMQSFgJSnYiQt0KuF5Gihn1xHlpvCzjKhyQsakT7yoeeYI9UQbPOOsW701L6VaU5Bo3okDsf4HALztLWFSTxntbPFWardwdraCTtsxVY+4K00MRtl8NBli7LcQzmijJRDhNXIJGvrccwTl71OEtWY23sbxDY43syKkoEz2WgtS+gYos/TUvcOa2CI9EaU5PVqSB6bkH+5pqeUceXrEUdO92AdzYG+Cmbol2h5yzxF8yl5PBSFEF6jR7wpw03jkrpVh549irpmlObj8Jv7msat2Chutup8MSuHskUuRi7YHE0S0e3tvsYV8PGvyePCPOwlaK7bL3ZYlH+B+q4Llx0AFRLZuP0kva1mwL8jhlSQYfbEyjPpZ9lb7uaCZio0d4Cm1HbfKLtIsMBJp93ookaEjpUF+Cp0oS9w2FuL8APFly0R5RpIEDSuMRchg1aEKyo3SOnmGaAuLhp3x1UwpoTbuYm3awLAssdKXqZ9AkIzRkUmhwgUwYYVY2g4YURRsYpEUH48KOCPeXqO9AOcMiPYaU7CKE+Firg0+0prCAPAntZWhnXL8zL1VCzlzJ1W69hZXjj42K2Csfu7TJNkboTmTgEDXxmi0l3OVn4GsEfKUvT42VPtAo8PV5acx3ifgK6C+GKFBTpFQKfaUIXcLB5oDAjQ62BC62+A62F0MMCOIoINKkVFwVoTZ1WfOuJIZQZhDFakeXa2k9ReKAWjAvTJNhEOHlOQevbkorqmkyDFQ1A9+yWqJzetp7F3x7SAhc1AvV7lnxIIwhdGkYM2kg6BOZTKmk3irAL4cFzt8a4Elq5mSzaWgOCRNRI0Ntlevj9MUZvKGGDEwddZoMgC728hIjhfbTrwd9XNYV4Ykwo/ZVJTeEOtdSogkh3lIPHN/CZbS1ZceTd3pyLuwNM7ZwjK+NDW0T2k9cEbKBu4WDhwoRftgf4b6hCAtcgZMX1+DIWlc5DCaElmCzqhsItJ8plfCorua4q0AkZuwwKeNA73m6Z0MU4CNNwJfmZbAwjtJo0yUOm0wczbTlSplG0pFUc1bpfbcK4Jb+EDdohW3621Se55cUe7HugFaObEzx/NCofTh4uCBweWeIuwuuYnslb57TnnxjwsZ4iBQO4wAvxPGtniLwmpeSKiLKkS9bgU5+RJXRLeLhICKn+wsS13UF+HPRRclJYa4M8dZGBx9u9fCiDLPeKt1Uhn+ayDDhOroBuFjbHuL6fmraxgYCjdaIObrrLKL6n+vh800uZps50P9lg1Tvdv0lToFZi2CftTJjofpC7ToDQb+6EUr0I9HpklDY7Es8NhzgoTzw75KL9YFAt6J/pWzT6I9q1mGRukz0mpxWYOVM9fRUeJlzJIj5PesINOd4sWtLPhbV5TA/LRQJUlPGU2mRXw8I/KGQxqAi6+EnxX0LqG8CBPbzAnyhzVOsgY0WqZBZ7eQwGR/ErPL4iq7Msuf150+88JanEzv+JEwkOqWDS9oD3NQn0J/KloHfbCOhTZTwwTlZrAiLIK+o30nhuSFfhb1GMllsLwjFD1EQUJ4ECWxfHVe3AktQsQKWPKbnKfCpMfqsXglqLqVEPXUOTEnslwNenJV4aW0Ky+tcFfWhyngVtlPZjskf9Opb//m9QoEU+yUu64hUaJE+YxnFM2kgaLnC/1GAFBZNHULimu4QN/QK1Ua7bNvprWiomGtVpVCI1Ytz2E9jRappiPKtbEUxAGzRbJ/f7ZPYKpmOySbnMQyPJBlapMCrcgLvbfXwyjrq7aK5OyqFY+ULjLP05VE/E/Hi8lwq4X7al/jDYITfDEb4T0BkYx48EeL1OYlTF2VxkEeMnXa1iDkI1fctvWOnAK7rLqkeGb3Ugr4CrkS6gIzkvR0fX5ibwrtnpTDLiAStKEwOnF95tFNjXj1eAxu8a/BHesW3S4mfD0S4sTvCU5HHBpuVQjT3oqe8WFcxTMdAYDEnMUCYtaEIV3dF+FfoIURKuY1GF6idqgFUROu+whN4W5OLtza42C/jqAZxbDuZvTW6rNveAnaKmUfAwCfCmBB+7p5hgdv6BB4sSAw51NWS5VarjPDGeomPzU7j0CyQ086h0jfxko+39jy2YcfBuZ3MqBq49JZsDClcjwYIE6fMUbUCZ8zzsNzjVTW9KGLFkAR/tX3EGC7mEtG1RpMBxVScjV1jIJR5fFbmS4fHyHomBdQTOlhfiPB4McITIoV/DgTYELrodzwIlwWFfdbHix7Y72gsMVZGVnhMf5lqrbNRpAAhhFPwRIQcAff+f3tfAidZVd39v2+p6q6q7p7pnp6ejZmBWdgcQBZRVIwLorhgXD/lp58Jxj0mMRr9VMSAgAGXsC8GCaIYo8YoRCNoQBRFWQWEgDLDMFvve3dVveXe73fu8t6t6p5eZujpbueVP5nqqlfv3Xvucs4953/+x3Vljv0wHPQyD4GubjbhPgAKIsYLG2K8c3kOh+fJaFBGhMHoE5sffUalrqncCaGyaSqQqq2ZPracdKqn4WIgEiiKB1LskyobEvKbAJWSZ0JvJFUhMEQVD8vA9V1EPKO4IewN2Xhe5EmMCSz3gKhSRVUqccXJT6yLFP+UQFIDALMs8pqyylrLyJ7UuOm0urEGybgLSdZFwdHhxNiUA44pODguB2wpeFiVA4qEPbA3vmRipyM7A6fh/FoA0zydPAiX9AGX98Z1IQbNGKn7fEhlGMSD8Ip95kGYTgxp2E4OFbGdMuB3gcCFuwL8T9WToQYzT82cprlo1E9bHOL97cB7l/lo176yGdlyZhO3mkj3fSwErusJ8MMRB/1U40WHu4yDwpzOXQ6URISjGzjOaHZxWjO5fMmoNKfN2VRV1I3QbVJKgtYcw24u8Ktxjh8NKm9nL6f4uFq91LamOMCbWoCPrVQVFm3kTe2ONflYmCVC6/rnYxEu6o7wm5COMoowiWRvx/1zguN4L8J7l7vy5LxEYwikY1zPG7U+9m6YqK3GOq5pA4NCgeSB3MEZvjsQ4N/7BZ6IqUaCm+jb2vRTtaeeUOnHDVvapmVSnHI2akFIxcwZbh6IcGM/xzOC/AVK1oqcq/aETZ6b5SzGyQWBVy9xcUrBkTV3iKcjzW6ZQhY67m+8DtQMCtE+GjDc2h/g9lGGpyLyrpnRSMNXTSLGSwsC71/u44VUSEo2zj4I7uW5GmRK+/gl3SH+uZej7Coiqnqzkvp9mKjg/63O4c9LDopJNlIafjFbJDEbj3FKDWUoSAZb63A1G1peo2snVHOcbj/Zp+9rp2PNIdhSPHQVKUJydRNo57HRAI+EDA+WGR4rczwTMYw4lAK1d8t4qubJ52olZjPFmQ8T75A0PtOQgLKaawdaGh56QtNXRPB0qC/Q4XPkJYufSVUio0BI44AAJoS6l4aItBKVE1HdOvEPJex01EuaMFTAieRChVNoQpF8ykLVoaANVZ6wpNGgKkLuDMg1qJR8jbGkZ14yATUmoUbh1xhztdKcaBjUfm/kaxaa8RyY+HWj4GgXIY5qYDiu5OEoj2NznmFdoys9L+SiVjiOOtOvBoVrm4j7NBkXxI8Ig/BP3RxXDdRjEGoNhP1nUpyqu7bpqDYSM1bDnNJjI3ypO8JWEDeBNtAtoLAxvsn4fY5TxjlrGvDyRkeGAKb39pg9wWymaTurYLi/EuPK7gg/LbsYAbnca83+lD5bIC9iCVR7XiMpCA+nFBhWUqhQg4tTdPvUJ/k0zKBCLYSreagscOdwhHvGKRURGJN1ErTa0cqKDP7WuIr3tAp8cHkD2mdkHVn90ZYZKVpy6V/TE+LGAaCXKRyGnPF6qGT8XxrYAsf6Ec5qc3BGi4flZLBJY966cKruGmtQDqK6kLyP5NElrpLv9lVx2wiwm2vPQbo9JWNhA7dPDgbxL0fvTxaDVrq6+bTvPRUJfLU3xHeHqXCbK40EY/ZIHga9FZBsKNzVAI7DfI5TCsBLWzw8t4FhuUN77nTHCQPxVIbB1ojhzqEIPxsTeHCMwque2ku1DIz2IUOJZEB8Lx/p8PGhNk+BCI3nYop5YOYaaZlr+2Jc0BWiTwPJVaaMGhZzKyq9flpB4O9X+jjBp/ROU5E41R2kF/43AH49UMbGoodTSr6um2JW6uyTgQ+MB6Fmj5pCA1nBZbqKFCKVQd0dcDwVcNn5B4h5ryKwPdKMgObeyW3tVZGejuq3ySRMYH2h6oxPhX+w/RHa2tArWA4qeSEoi1tvkMZpS1eSc854DNQkVw8zk22Cy8jeP4whohU6nWrMveW/Sdw/vXOk6x/YwERzSwN+oQlIcUY7hbF2G1Z/1e4l9TKolazJFFEEWmlkhOokvHYJw5sLHJtyDGvzLpaQp0B7U9SombGbao5MpfAWz3cyzZGyGAYExrwaeqcaT9eBMxBq5zNt0BTq+0pPhP8YYhh3aJNM5wMBFemkR3OIDEHC+ryxyPHx1XkcKoE4Gr2Q6KvJ8TMTR0xtnWUw/KIc49LOAHcHPqrkc0v4GJT71axhcqOS670gONb7HCfkBU5uyeG5RWAtnfCTsvIKm27OzcqgVfeiz4jFc0gIPB0BD4wB945U8VjoYHvIMCK5GQxSXWNtNHKcSIwcRDiNjeCiDUuw2eTwz3Q6WguMNvm7xgmsGeGeCqVZE6NrmmJKxoFycUN64TZ6Mc5sdfC6Fhcb3TTtt3Y0J8HtpJEdKRAyiP7Igdv7I/xslOOBCjDE6BiTKhXZzDpPogn1Pk9TLVOIYV9fZlzkY+gARJ6sKscVnVX8uOxhhHmpR8X4abQGpceaEu9LEGO9xDEJHF3ycUQjw6Y80AQmGXnJoKU5S3Is04mbsCXEAlxleHgkxMMVjoerDjpjR3qKbFp6YxSRXGhcCOd2ohviE6s8vKzoSsU9E4NUYh30NndrWeDjT41jm19MRWetNbqMPBNUev1lRYF3dvg41geaNXCYaO87Y4H7yhy3D8Z4ZCTCaUtc/HV7DodQ/SE9z80/sxmieTAQZjd9ZBxGnqKZHMg/RAL/0hfiO4NMTpjJELUT4/WTP1MOkHGLS3ISbUnqgZOxntrsn4SG1q60Jq/TE7TOPLHgJnsH19Wq3L0rYGM9SyPGunP9L1J7UW0k9QQ8Jj2J2lzzXR0+wKjs5Dxfo7fTp6qc7zRf25TpTdLCJP6D4yNtwGeWq2qAJsQyu9mw2K9OJCmzQWQ1RwoxeL7MDDCbuoIqqWtXVYdx9ZyGGPYu03EiOhuL8aWuCA+FtUXMpHtdx8QpREhrZz0Ii+Pg7bqYmY3oT5Sx3hX3vklpNSFIKQM/IyNhTxUPhZRV4UgQcFLyQys5Y6TQOqQ0SMIYEU/KIW6MdR6woeBhXaODFXQgD7g8aXuEl3CIX4GhhwPbx2J0xw62lyt4JqLqij66YzqkqNoIdntNqJNaSs8kro/jcwE+uNLDKwo+mhKM2EwquJk5odYT9a1HQLrX/6WPYxunlE/qN7EJapZYfSKmNUQHEgrVndQg8LIlqiruWge6gil5J1PyutT8ZpKZkCjYu2KGrZzozjnuGYnxu8CRwGRV6ZWKnXG0OwKjBCznysWujDNzKlf78wnBAG54TqsEKe7zy2AgNP8B3YcYFu+t0BwI8POqr0rU67ln1gjtN6mxqA5q5MUib20LAdSdCKtdIev9tOY8FF1F20z9G4pi9BHmLRboFC66YzISyTtL+kDt7HRdrF04SZ6BzqTYhCo+ssLH65vVgccckAxQclpZCOB3scDHto7hl6KYsIiaNEcSJ8nXlKovQeDwHMfhLsfKRvJTM/RXOXaGHNtihj2xg4qANFrOWe3jlAJV5J1ZqGWyti4CA6G2+BBN5i90B/jWIDAm0w/TF8UkafG2EKxFCAxQPQUSeU2CtL4+Yd8yv7cUnknRm4xqWV9ujH4DGE23/mmnhNxsjLfCXF3PIDndXSblgLAUuCKYUi7Hydpmn9XpAkNPPbV/oNZkIJxQs4jQLgKsyrnodX08WYVmSKztAa2vN7BRXH14Ccutc9x0zr/p5LBYvk9PrWqQCBn95QEh896rnixllYDxjIuR+kbVHOeMB2Ea4VGbKP5+Y1+Ar/YBe1guQZQbkKLaaNWLYuMn5UN8fGUepzbQ3zrUkMQ+Z6E9tLIgJtC7ywJX7izj13Ee466hzdGnQPlkFZqiTdy0ReWnE5ZFoIUR8JijSUSgOSuVm+YRIANg3HEwxB1U4IFwPHSKV/iC2uQwU29EHRLVSmnhAc4oOnhPh4Nj8q5MQ0vCAlq5zGyOpwgr8hBuiwWu66ri30bcBIdBwDxC8FP7ybAxKeG01gkHtdyJscbj0ig6upRDS2UUq5oKaG/wkHeACgd6xkP0lAP0MV8aQtsrsYz3d3EXI8LFuGa7pd6VOMdJuQAnteVwa2+Mx2LK09eYJ2soSR7Hl/twA1Et70cWg5pF6kQmZSxFLGRhuAcCjmt3V3FbhWHUyadK08IkkATNYS1NM1V7LRlYtMoIlyDrish2MkkmR/gr4thQhaiIGM4QhOlVqz1FMr1Xp9qS7Kly7NnLXbyBQjzSS5Xuj0l2wd6mvJ6otI4GBPCFPSGuH+KSJEv+VveL7qhAiYqsjNqc50LixwgUScYQpcgSfoW+pXlBj1wWB/hwh4uzl3polQ3TR8r6LLlp9oAFbyAkc0bHyB6oMlmc6fYxyIJK5uSq5M3QHlbxt+t9HMsEdoxxbAtiPDQ0jqdFDnscH+MOVTIkApIpMTyz0zv2IUD/0li1ZAnO1HiYivjJLB7pRbAAk8aRb8ikzOYkS2vXTc4kdqbbaLNUph1WRoWdeSD7QhkbIsIqEWIFr+I5zQ04ojGHpXwMm9qaJO7ix0MRLtsTodun3APz0iaHAI4NR3H90SUcrxfnLOfq7MZkwV5tDASBL/ULXN4dyuI0NaFjPWHofLC6PIyrtpTmEKQ4haAI10KlvUOBy7tC/GCEYUTSQqs5Iom2aFOSS0+5TAm09YZSjI+uzGGzqzarJHUs2UCngs8ZHLnaDOm/pLCfDDm+uruKH446GCB56ROgWVuqLLShCVffEmUxbfpkxBgCGnnSVBpeGRaGG4RqiWjFQY2OybixWXx1WI9+b06Ja0QZ72jL4e1tLta6TJ7UDOvejE+QiXRq06BJpuQtvbaziu+NUVnslIPAIPSJH0LGwTVlNikB8uTQlc2Co5FH0qXeoOnTyWtQ5ZAnTMqcGWcUuqHTsZp+tF/IsdXZWac54/jQIUWEMccFu2Pcxylnyw4zqA2Grqc0xxuOacURs7ABJ5t5ZmhUWmPi3kWVAdsiLosA3tgbostprAl3mHbIIdChKHPooXvSHJBzYZLN2JA/mcdRyIi6ETI102kvJNkoDxWQ4xGO82OcvdzDK5qoBozCnMlzuu6/8phNrWNMXkYEB7eXY3zqqVH8wW9SWAt9H1O4TjkwdN0gvY5USqeuzafFpTJ+GHKc4/R8iHNX+zjS19VBF2wWw35s1vb5l0B5PxmJ8I9dAg9FStGT0GzluCUexbVHlPA8R6VRliWOQWAwUsDHPSHwYP8YtpZDbI0dPAMPY46LECqdJikVXa/WE/de/aDv5cydVCMzmGY1mKninv6sPqnYzKSrn3wzMHhMeqjCJSjfQr0hQRtpI+cynrvSCbGehTjEB45rK2FT0UWHy1BiQvISyGwDnW1Bm/FtwwE+tSvEI6yQAhD0RKfnEOHHtYcX8Trt+Dk4DQQ1qgQCvLgnwtV9HGMupU5NnA80TqurVCNj/gwEmlZVJnD7iJChhvsjiokrl7s0DOTmq058ku0UHKtFhL9qBc5u97HMuNhsC0grmckVhJrIxrAwGz8pQooT3z7Occ0z43jEyaNMBdpoM09S/FJ62vp7k7IwBrPaJ2kzpzfpwqETJu0ZEvSmy11LQyjZrNU5rMRDnOwGeN/qRry40UWLVh4mpmxMHLMIpsooSPc37WdI3OzKuNktBL66J8BNg0CnR3Bn1UcCRlLTI+Az1wAAIABJREFUleJSn5lwIa01o/RJNsbPSs8ytXBsXWGoiqWBBKA1rOAtTcCH1jZgJSOQOFVzDPHbmOB+KtZvFBcpKfrs2CrVYqAQwww2or3pg+SgNYkWlzgrhkEG3FXhuHTbGO5njZKHRc6XJIFDmaNkKEkPQeJVqgX/1hsU5m97HSb2iTaCCDy9hAd4RQl4T3sOJ+SpcqyxBGpHe3qVp/soN0GOHu7g0t4I1/XGGNIGMD2fxobmnCILo/mZAomlZtFzWYZ5NSW6MVIOj8v43Lo8XlOorWQ8fdvSKxa+B8E6nRM5z7f6Anyxh2MbVX0zILskzi7wOoziys1NWKPjWHILsNxeJGBKqSRjg3KbKc5JwKQ/DAo8OVxGDxi2B0hIm4i4iTIniFqYXmSFy7Qr7dIxg6FEqlbt9J4AdaUBF9aEQJL7mEGy3RO2dVA/zCnkVW4QKpU3uRs5Zin1hZ5L4ZcSB4qI0IAQrYyyCRwsc2OsyHs4qqURa3JMxlIbKQ0U6nREGw39NsUWpPcn99eDZYFPdUf4WUUjDOqKb5WiAOct9/CRdkohVeLazwPHbOb6PF9bu+nRXJZUywNA6FJKm9pozOlH/sWAuavFML04ktkmBLoZ8LXuKq4fcNAp2USUkak2VpWRQ0pJnrK4wAl+jI92uDitqIBhZm2k6mOaka9LmTUbOMWkHw85buoJ8aMRgT3ISZyAka5Zj3INaBnaPTUgM+PQN7UmbCwTGb10P0kIpT0gVFGwAIFNCPCmpR5e2+rhEFcVkDJ8A2Rw0O8MFFKdhmcwydWFug9Gkan5QPiOYTD8aJjjqj0VPIa8BGyamHtaK0ObVJOIdYKi06ORlFXX6p4M/ueIcbxnTRGvLgJLybsAIcuyn7M7xG/iHLg+XUv5yC2HkqMZjg+HZBbD4ftjICTIqnpWQL029ECS1+OPkcBNXSF+OBphDxrSdG8dKjCyV+ZDuvaUgrUVoHqfrjuVhu5wtRbJZS+xHpzjUIR481Lgre15rNcA6yRvRB+U1IamALzKpzCTHU7hOMhT94XdEW4ruxgnE0f/lEJnZCAomdcaYGZs6VIyimh85BoE0BZV8Lercjh7iYumOj04/erXe/uBSXOcaXMmuc4ytAi8c0VPBZd3cwzWuLHV76iQ00eagHPXeCglCsiiP7E+kyQStJRl0RWVMUEbDU0gQrZSGiF5H3oCgZ3jIYZDMigcdIchtldD7OA+/jf0MUjkFpZbyc6EMENJqS+GxcEGPVI8sV5JEkrZaHUzteQnOrRJRpGkKnJU7KzC9fSvyxowGyqdOVaxCM/PU/aAizaPeAZidDT6WNPoytLZVADEGAI0schFqSg7jAIwG7xKrVE2uvqf6qOS8bYIuKAnwjcHgKpL8UqlFgy+ghbZ+/MVXHhYUaffzBTZvh/zZ0H9VJqrUnrGg3BNP0fVwtLYcVSSm8QgHN08LyEGWdZbDz2drB8KBS7ZE+D2sosyeRFMrFTGjfVmKHcsoEVEeFOLwIeW5ySqnzZdxWtPMkgpZacaHts01ggNOdvIJUt7wa9HY/ygL8T9oYte4UrXOYVEaJOkF3kEyIgxJzBlMOgS1lppJCEDfdo07ZGnN6g4bxOlMDsBXlp08eq2HA7PMbm/UDxadV0Z56knI8VNzUg/KBWlH61XUwplkH0mw+jBSOBru8r4RdVFl/DkfqWwEro+jR4r2xS122RWsQkPGd8mgTrXIcQrmxy8pd3HkR5lQyjaaPJQELMh1WK4JyLYn8qoUDM5DdWcINMcW/eLB8Ew5CQq1d74dEhJPVQBovsEw91jEf6zN8D9oYce4er0b8vVb9Eu+xo3QneQrnjjp6oJAysuA/pepqcTIZfDcbwf4y1tObyo5KDVgAaTwnzWTDV4G230TXUESi7RA0MH1wcrHFd1Briz6mBQerXT9GJqr2lbklmhlYxcVTLdU5XHbkWElxdifKAjhy05V4ZYlFxrDYzptseF70GwFs7WCLiwN8Q3+oU8dcmBNv2lhRxW8cV1eZxdUlaf+ipFEifDaAEQUgM/lbR8p107Mj6lJxS9JyIK8j50EchsV4DvDrsYcd2EwCPZEPTtCKh1XIPA870AuTCShgh3HFDBI4pzUgvpZG8WHX1OG7Mj44YKtR0JQl9yeXovui5KnotR38cvK1TXgqFCi4BQ2dqTos4SFF/lWMci/GWrwFntebSZeKye4Mq61pNGnwySFB0jBC1/tS7r7GFTIEQv2j4mcG1PgK90cfTWG3DabftGbwxf3lDCaqlRZmZfTzeJF8v3ydIUynt140CEbw9GCB1Pzh8TH7c3+A7iYd/YhJOMn/tAdtbOEmaKWvuWQapPQi5RbSLqUJU6uWi/N5146MTlcLy9zcOLmzw0Whv1zEY9RS6Y+KuyphVQj1zBtKFS2IE4Un41GOB3VYanYwe9wsE4JzgA0eIq17upH6EUgwF+qZMeGQKqMI6QdMmNRJTGBJZ5AhtdjhMbGE5aksNhOaDZhFQSfIKpA2FWnaWl5eKafkNO9yU7vq8MjnQucMks2y2Inp7jpwNV/D52sTt2MEz9lGmnJnSoJol9wDAeS/J4EKU5kcG1ugLrnBjPzQGnLs1hSyOT9U8oBm/CL5Q99miV4+ruQIIUDTGbOrGmwLyN4QjO3bQE6/S63qdpmmjMdFO3uSnUVq7AdhKHJaneiYFS4JFxjl8Nh3ig4sg5QAX3CJRJ4TDar2k/JE+HHG8NALSzz2grNlkhxMS4hA5WXowtOYFTm3M4oclBh6wemyZ+pgqe5KV8Uqa0/PSlPI2JpcuUajVFc/rJUOD7AwFuGwW2ha7MIKF+yBCZxP0oUCWZ2zKtUptrjdKYATZ7EU4ruXjVUg/rPfL+qlBEepCdiVdDz6EF70Ew+gsCv6sKfLorxn+XKTeVym1qzgItuHXhKL56RBNeTtT2+8AaNfNJzaX1fg9xp++o4s7QR0T5yvaq1DejU/SRfoRPr2B4edGVbnpbAdRvIXLa6M3HHkazZGhSDwuGH49yXNXL8fsqUYIai1m5EcjFS21ZKiK8tYnjb1bmsYnKY8+og3vb0PbyubW7kcflO/1VnN8lsNUh2pKJrxfFI7hsUxOOkxwwM5+oM2r6gr8oHXk6GfRwge5IAc0MKEl6mPTmTmNNG8CaHJ1i5/ml20X166lmCp3Wjc1i5qxpoWG7I+N4mVRElC6n+p7Oon0be8sRn9xP8qVAyfLJsRCPlzm2Bhx9kYdeKjJGmysVhItjRFwVaZbgM9eR1RiJpLIxirGUcRlmW59j2JxzsLkpjw5PyCJvDTqQMD3VzPQGwb6NpJIfrXVZM0UIbA0EHh4O8HhVYFvooBeOPEFXIoGAkxeQw6OUTtdBg+fKnP1WThlHwMYcw9EFHxsLLpa7QClhL9Wrlk4c0rtKVVuB3bJOTuqpsD3dNJKFWGBtAyQ1+v4HDqeS4cTv6BMyAkYhJMbs8dEQj5UjbI8YuiUTryvZQCsxRxjRHFC+A0pz9WkOeFTwi2oexGhzOdb6HEfmHBzTmsNqaSyqEOvUMzbZCGcxvJP3k7zY/ULgd+UYdw8GeLQKdCOHURrfiCOOY1DlS9cltkQXJZdhCYtxmBfjhEYXxzd5WJdzpJdWZRkZT+3s5+Yi8CAojUmbwB2jMT7TGePeOCdHy3Z1kSJ+XjyC649qwpFzfjJVk4Esu1vGOC7eE+D3MRkJJk+g1gjIxRFemYtw7rpGHOdRuo1aRPIuE2advYUabWHIXFTo4y4qZqJLohJQS8W61Mso5QbO8Yp8iE+uykuecOlvmS3D24ymetpemth3jEY4p1vgt4HiqEhf6o8johFctrEJL8+bMMWMHrLoL5ps+zCf2QajfZ0tvn1Tp/svNsv+S25ml2Y3H9ZvPeZvc3I1E3RfttGZ9ILua7x9FR0iHA04+qMY48xFOQYGqwFGo1CmtvmOgybPQ3POQ54IhuIIS10HSxo9FDTuJmU7TUyfmTRlzq8xxE50mpeKkQv0VmP0R8BQLNBXjTAayWg7GlyGppyPFt+X4GKqhNlezOnQogIwGj9FrcdB/6VPntII1D2jf81OZ89deVSRLtkDP1uNv9iEi2kOkGHTPx5hTDgoOw76gxC91QCVSKEvCq6L5ryPlpxSsoU4lrV5mj0mQdjGKDjwvVEpjXSIIO6f7kqEAZq/HOirUrg7QkglATwPbXkfy3Ie2jwHy3wiBVNkWal3xw5ezX5qLngDQQ68zoX93mAgy45u8+w0OtVpEsgb3HFctqGIVQfIfU2TkQqsfGMgwjUEnNS1D6g9NQuH8pTjCGctFfjYSh+HJlFY48pTfUgnonaJJBpWuTFpM3ioqspQ3zriYFiXCU4WrPaokPfkKCfAOSt9vL7Jke7dugfMfqbs5RdmYZqvHwwEzumK8ZMxYp6rW1oCWBVXcMmaHP5PiwJaHYyv9Cxdbx/Ox1Y0xQjoSZxMn/rc4Cmba60AaS2kCudAOI405ZlM/DNhBcVzn85YE2IzCHCJuzFu/WTJ2Ct54YyPFGkyPuoNqT3qozIN1Nwy/6e+0npLDxOpqWYHMmrz9MyNUhnUGnhKHvZ8VvvYfMhJ9TiZohYfhcEbGOPBBK+onUaRqn815kZnsszVnjmTPS/JbtExcGX8aoB8gvpSoXQ1tipl14hejoAcGAJbqvHYl1FZ8AaCQgEJWWHw+oEIF++O0eMTrK725XGBDzSFuGBNHsQ2peJU+yiVmYyg3mjIiv9jKHB1T4hvDgJ9BDirGwmZaw1gNa/ifcupNHQeKw1ERl5rp2eZcIFZ/WonoKn7dChwXW+Irw8ydOqqYgooaG9ihF4N8P52JmuldxgRzARNPaN+112UyFi18SkOXNAZ4NsDQNmiEDb55s1xiAs6XLy3TTF8HTwvcwZTuf3Shk06b/9RO3nqXeoHVl4WDsBq60y9AOl2a7d6pr/ev54mLU9SINVz063SPhNrU1Vr3VqTYF+21f1r+4x/nYiyXkWrOySK2r5Ovk+LOhk9Yvcy3TYnGvhJ26yQkflsWnKgGXdsXy60jyo2g6UFUte33duIWluZVqx1ctyXZu3Tb1IzNsHQ6Q1j4tw0NVTSBz2bBtoiMBDUFJagwP4YV3YRNa0hSkmFUogifGqZg090uJJuVQLg5kgp2lOOBozSbn5LubldEX4y7kiXpmy1nomGa8ATHJtYIJHdb9W1vZMNq2bk7cwLlW5D7qVvD3LpPfiDyCHeC2jN5xyvy0c4Z20OR3tUN32OMwWszYfedspS0+P4ar+DIZ+cXWaRKYO2kcf4ZBvDRzXl8j6tn0X7I8ti1W8PjLrcV4FN0roZNrhOd1kNMOi+fW3T9L+zzwV7M7CMSjXrr1Y5WM9YBPZBqqC11K3iKoZRsF7V1fQ30ac1SDa1hyWi0AZWTY6gfcU8C8pkf0njRzU6jb3XtdOeIOYri4WzJjtnHj0i9SatPSBqGMwVqXeuNqy7b14De4UtCgOBxv7pWOD8vhg39RMw0ZU9l/F2PdjLwgouXteAdxPaxpTDnH4v2Y8r0h2e3hF46ydjHJd3x7iv6qBKeYiJcky3qbzgONaN8aF2F2e2OJJkxbYN6Cdq7BMfpwSE3V7muHhXiHsjr+be5hnSfUgV3hDgvHU5vKzRkemLyf32o6dT/7T2lDkI4NquCv65n6HTUYac8h5QfwQIG/GBUoRPr8mjbZ73lDkTyUxvPEmuf/1P51dEKQampl11xs3eujsfba8xCOTCMuV3iUK3zqNY83dq+czEwJjpEM/ldbVGTrrSJ3ZTfWJ7rGoNuDQtsEY56D9MuEY9QQUp6p+Rqqv9V0r7KrN6YybdS81GOJXvQF1DGTLaqZt4Zp/NE/ns+2Zrh8n4IZQhZF77HkyYvGUL3kCQzhZKZQohMxj+a9SpPT3LmcpwaHUEV2ws4YxG+sBiCJr9iMziF2ZgFNqXir7822CEK/sEtsaeZitMb2fSEKns8clEJLPcw2lNhKCtmwSJkaBStH4bCly0s4KfVXyUHQNxNMkt6v60ZDeEFXxybR5vbnbQbDaEOc3m0IsqwYUT0lngW/0RLuwFtgqVfWsHQcijcZZfxgWHFrF6bmNAsxjHA3fpxJFOduGJO2uqsw5cA+ueNJlOTVXRFM3ai/KdVLM8m72Tz7VVpw502AxURpsl+mI+TJlnqdOWsaZM8OkVdI1xUHdAMfeYeowXwMScID5LTUonVcrRYjPl7W391RqF08vwWRq9GdymXtbW31Zn5Nu9cXJZc2RGa9dq1YI3EGjKE+jm3rLAJ3dF+EVEtLTWpip7zHBcMIQrNjThhQVVknWC+2UGQzH7S+zppghanuYCV3VV8Y0hF9262qRt3ZlflHiM0wsx/mFlDifkFNgkabXFSUAx/XN3VXHLqIthbRzQdfWlqZdHZc2a5aE9yclNc2xn37eZ/8JE/2hfprzkHw6F+Fwvw+8jAwNL5USm2+vccXxpQwEbjKk+80dlV2YS2E8JGFWwEJXcfnbtgP18JmbIAWtMnTKYrQo80O1cXM9bBAYCZFnSu8YjfPyZEA9RkQ75sm1d4EV8FFduLGGLP78OITJmHo4ELt5Vxq3jPsa0Up+seFIrD/H2lhh/t7JRZjYo00Z5QOi/3UzgC3si/Gs/x6DGXSRWRBKDYihFId7d5uBj7S4O0QVydNkVhfHUxZHmbmrqaJ/mhv/JaIxze4AHAoMLrjUQXooxfHlTEVso1XqfsLVz15PszpkEMglkEsgkoLXsYiBKohj8f48G+MQzAZ70itqPZoAZCgH+KjaCazeWsNaK/c/LIOtT9B1lgc/vrEj+8lCWEFWkFTUVFqkYDyJ8YBlwdpuHjqRLAsPMwZX9saS2HXIb6nxeCQM43JjjtIYI56/xcYyv6pxDcDBJF6bwGClYZ65cqdoAEKoy3C8qAp/pivFrSWhV+0zyIJwixvDlzSWcKA2E7JVJIJNAJoFMAgtRAovCg0AMXt8bCfHZHQGedqmygXkpzkxyZJ9e7sSNx65Am4QfzOO5VOO6RpnAD4cEvtwV4hFO1Q0Ur3mtB4BoTTk2OCHe3+7ibVRXnDEMC4Fvjwpc+EwFO/zGlEJZ0xXTPSS/PASOYVV8ak0Oryy6KGqAuFTX8v1EVPLcTMLUQKBiIvcGDOd0hrhjjCGiinuJt0cZNs8VY7h8UxGnyJJ02SuTQCaBTAKZBBaiBBaFgUAc8DePRDjvmRC7JEmSHT8k3nfgzXEvrjtqmWSSUibCPL50xUNC9H+nn+PSnghPUAW8urRLiQeWRWFiHO5wvK/dwWnNLn4xWMWlXTEeRwFcpido8vAkZk9lmoVMmfxgh4e3tnhoJxNEegsUI34KYdSehDkUSu1oCDwcM5y7u4ofjzoIkkJE6irq7xZpIJRwaloMYh4HK3t0JoFMApkEMglMJoFFYSCMCOBrwxEu2Bmhx6PkPV1RTB6QGTwe4/+6I7h0UwsK+8Ea9WxMkSTarrMH+gRwfU+Ay/s5dlO+gqXkjR6nj4i74XCX44SlDh4ZCPBolJPUzbJkcy3cAo4QWI0Q71rq4C/afKz3VDlQo4HTxMMEiTCnPhUbFEqNfYwD/7irgltGXFR0US0aMwOb2MzHcMWmEl6Rlhh7NkSf3SOTQCaBTAKZBJ5FCSwKA2FIANcMxbh4V4x+CdarzR7weIQPFAJ8YW1R1543HoT5QdvaudjUgme4wFf2VPD1IReDLoUb0pehSyXtSUWWqNKaLDutsRQT044E2kWMNzcJvI9Ks/qKDClNcSGryaR5GvTBgZCDegb993EOnLerjB+MeDUGgimudVg8jss3FvEqVVIje2USyCSQSSCTwAKUwKIwEKh05xWDMS7ZHWE4QfOnqtOPQ/zNEoHzVuZVNbH51jppSF7aMgTceyIWuGBHFbeOU3loxWVgvxJ4Qp0up3RGk+NKCraICK8ucPz1cg8nNBi6Yu2+164G+y/1DFUidU4Fo9tN//wvB87fWcZ/jrg1dMvUEjJd1vNxXLqhiDNyadGXBbg2siZlEsgkkEngoJbAojAQBjhw2VCML+6JMObmktQ9M3JUie2jrcBnO3w0JOl/82cpyHO7rKluWihkHfVfVQQu6QzwP2UH4xangbnKNL2eLpNSJKkIC1ViO7UhxIfbfby46ILqlhvExdQ+grn0IFj31phIaSDs0gYCjVcd09dh2kB4dWYgHNSbT9b5TAKZBBa2BBaNgXDpYIwvdkYouzkJdDMlZ0m8+TjG37UC53Z42kBYAEJP9KZigiSgYRnAnWWOq7tD3DHuJBwJBqwoz/qTeD/Ii5ATAi/MhfjgcgevKPlosqr9zCss07Y9EgNBSAzCDxIMQpq+QR6EDVyFGF45sa7VAhi4rAmZBDIJZBLIJCCP2AufB0FgQACXDwp8aU+EEQN608qIlKfHOT7SEuO8VTk0LgT63sTdTsA8k2qo4vMjELi7LHBNb4TbR4Gy69dEROga6hOpVFUuWUiMwfEswN+u9HF6ycESpq5Jy3jaeQQHeGInmZSqKBS15LEY+NzuCv5LGgiqXJR6KXDp4fE4rthcxMvINTLv8aADLK/scZkEMglkElgkElgUBgJhEK4e4rhkd4yBSVzWbhzjw8UQF61tRP6AFGqafnRrCmjo9EZT9KRHOPj6SIwv7YnRCV/fLMVUENaA7JxIczo0Mo53NHF8qsPFekkuZBSrSn9MuYjmAXwxiYHwYAScuzvAbZTm6Nq5jMpU2BKXcemmAl7iz3GlyemHKbsik0AmgUwCmQT2IoFFYSBQFsP1wzEu2hmhV6Y5qtMovUiH+nGMs/MVXHxYUcflJ2L/D9wM0KaB9ALYVc+4bDGxKv46UJUZ76h4qDJiGzStU+1Oz9vSySM9JMe4If5uhY/XNTM0k1FgV+aYo7LWM5WZSXOkNsUCuCcQ+OyeCHeVnSQbw+Rq+gI4Tozjy5sKeKE3j4RWM+1cdl0mgUwCmQQOUgksCgNhVAA3jUT4/I4Iu6WBUEsMQAr0rWwIV21eihbHquIlB/VAn6rTErmp4lRlREMG3B1yXLIjwN0VD2OOKzMcJn1Z3ne6pJFzbPFjfHiFh9eXyEgwvAfm1/PtrlfPjyBwx7jAp7s47q2Su6O2g8Th8CKM48ubizjeyQyEg3TfybqdSSCTwCKQwCIwEIBxAXx3lKiWQ2x3G2tqmiomQuD0aidu2rICrVTmU6cDzCt4T/oCFAaBVGcVDm4LgAu2jeOhOIc4MQ7qQgsSe6C6qAo86e8FiIsRR7kRPtju440tDtrIjyDZE9NshvmdcwIhgB+NcHy2R+Dh0JU00TaglMbqVe4YvrKhiM11xsP8tj17eiaBTAKZBDIJ2BJYFAZCVRZrCmWxpic8VYtBgfTSBLrTMIyrNjbhMFnN0JxM5+pUrXgFUlieMgPMf6XfQp/wqQVEufz9ssAXnx7Dk6wRsVVQyqQ2SjNAKvvJXAop1iDHY6xjEc5a5uIdrR7WE8GSZluSva5hVFQeFIXbnCNZJPhIZaiMC4ZvDwS4sJfhKeFNKFBP9SPe5pVx8WEFrN5rAfNskWYSyCSQSSCTwHxLYFEYCFRC+e7xCJ/YEeI+0SA5Aeqh/yfEQ7hyUzNO9lWJQDsuPhdCTu9vUhaU58IwI5K6JO6DnVzgpv4Y1/eE2MnyiGWtiNoQiWkfFUeWFR/lqZvO2uopdAq3QxHEuLgCIV7XwnB2m48tOSCnSzrTLywIo1XJcS6koB6WeGwEQz+Aq7vKuKyfoddR1NKqF6rPDSLG+5pifHp1DssEeUDmqF3ZbTMJZBLIJJBJYL8ksCgMBDIIHqlyfHpPjNvKriwhnAD7tDZcWx3G1Uc04YwDZCCkUjemgv5En6iJ8+DxUOCG7gjfH+LodvOymqMMG1gGjgmRkHGwlkU4ssHBH6sxnuIeQhk8SY0hw5dAfXfA0RyHeHWzi/cu83BiXqDIdKEmc6qXP9YlHvdrmuz9x/V+iWc48E+dFXx9gGGUWC+VayQxdopxhM+0M/x1u4eC9sHMUdOy22YSyCSQSSCTwH5IYFEYCEIIbI2B87o5bh4EIlcrTnMSF0BLVMHnV/v44FIvcf7vh1ym+alSi0mgQf6pAgxEijQoiDUxxg09Me4aA/qYpzgLKBxgeQPIOKBf5ZjABifCWa0uXrPEw29GQlzZG+OxKIdQHrFr8xpU41QbmuIQf1ZkOHuZixcXGJaamIW8RsnJzqV41mUiPQipP+WhQODcrhj/PcqSUEpirwhgeRzgghUe/qLNleWqDzyI9FmXQHbDTAKZBDIJ/ElKYBEYCEq9dHGGr/RHuLKLY9Qz3AGps55SHT9cCnD+2oI6mWqlPSejJqkRU6Ii8wzydOyKgdtGY9zUG+GBwEWF2ZkKtaEFamNBxDjSjySe4M9bPKx2Acra+P5AiOv6BR4KHQTMtWibtUrVrn26I1FNH5MXeGerg9c0uzjEMbgEZVzMtRff8DsEYPjxcITPdVPJZ1+OAT07BSkybAzHcdmGRryqce7bNSdjn900k0AmgUwCB4kEFo2BMCIYbh4McMHuGDs1FwKpaTojc6mvBV7vlHH55gIOMSDBOdOM5ClIIYrkHRijIkWBwC1DMX4wyPFE5KDqEEnQxJc55BcFx4m5CO9sc/GqZhcdjgJfkjeCuB9uH4lxYz/Hr8ZFTRVI25+QgBxFhPUOx2uXOnhLi4djc0ApyeawvRDP7sxOYJUCoNLW1/UFuLRHoMfNS2+KHBoZElFOj1PEKC7bXMJxJsVxzsbo2e1ndrdMApkEMgkcbBJYFAYCKZlQAHeOxfhMZ4z7YvIgKM1ih9s3hWO4+vASXio5/ueWpY8MBHpRmGFnDNw5yvHjEY67xxi6ifPAIVTBJMaBhAQINIsYL24QeFebg5eUXLTK8IPyMBhg3ziA+yvAN/tD3Dok0MVyCfaiJuigUz3pt80I8YKCgzc1MZzW7GKVq3CgRh+dAAANyUlEQVQPc4cGVP4DLhh+H3Cc3x3iB6MOIuZZYFFlIDg8xlm5Ci46rIQVZnwyA+Fg23Oy/mYSyCSwSCSwCAwEZQaQl+DxEPhcT4T/HCYaYk/qPCIgkkdVBjTwAP/QxvDx5TkU9WcJF4KFtrdZA6aLgtssA+Y5yvwQGAXD/VWO7/eGuGucYVvkYJTgg4xJhWinYZr5QERBbSLC6UWBdxO4sOCgyeIxkC55cGX+CAdVJvCHCPh2X4ib+xm2wwNPPA10rTIq0uCFQJ5zHObGeGUJ+PO2HI7PM5R0A9R9beBiTQ8tsyo1b0zqpTHJUpkp2dP3Y0zgB0MRPr8nwpPIq6TPOuXfEgU4d4WDD7Z5yMv2ZNbBItknsmZmEsgkcBBKYMEbCElNAwF5Mr+it4qrejj6E8pl5ZaXWQ1U8ZCN47JNReXC1qf1ek+D5CjQusk+5ac+Cet8nhgWanbQb+lZ24XAfwzEuGUwxqNVB0PMQUxmgQQrag+G4WrQDyGDZjUP8JalDt6x1MHReQcNso2WorRAf6pkNJEPCeyIGL4zEOKGPo4/woeQaZC1HpTkA+mN4FgCjuPzAmc0M5yx1Mc6B6Diy2kBKdWnJEyQcCXUemfS1mnToA6DQd6UZ2Lgiz0RbhwQGHNUmUZbtjRGR4bjuPKIAl6sqzhmKISDcMfJupxJIJPAopHAgjcQlPpSimkMDN8frOKCboEnhDqDSsIkk0kHYEkc4f91MLy/zUNTUsjIPvsq2J5RXsk7+7ibKEp55+RUTV6MQQbcEwLf3B3gFxUHncJBBGfCaZnaRhkL9CLwIr3fhDLeuzKPM0sO1njEjGjuXa8qrVJP0pjhMjWyM4bEOPxrH8ejkYuKo/MAksqOQj2TMiXIVpFlojlWOhH+rMTw5lYfz28EllJIQrlflLmQ2EuWP6UuPqKuSaWWzHABVAD8dDzGebtDGf4xxou9CjwOvNEdx2Wbi+iQ5Anag5A5ERbNZpE1NJNAJoGDSwIL30CQOkspLlK091UEzu8Kcfs4Q+AQrZD1Itc+5zjJKePCQ+mkymSp5Br1aw7Bs3Bwk2FAJafvjwR+2BfilyMxnopzGJO0zgYAqDVznducvs1xjuc5FXzkkAa8pNFFGxk21KdETyqTRTVNBRlMGqXxWpAMqNxTP2f4ZZnLLIk7xxgGHV96IJQZlZo+ZDiZctEU1iiBY5MX41VLXLy+2cWRvkCBUfllwztpWmBYIAkLQdkgqn8qldG0jd45CUnSjljgn3tj6d0YNOW469ZRa1DBBevzeE+TAwPdnCtyx4NrCWe9zSSQSSCTwNxIYJEYCDrrXwh0geHKngqu6WfoIYe5PIHqODyn9D5V2OjVhSo+vbYRz3EUHkAx/tlKWJ2GE0pkWSZahSmk0tfKu5cDvwmAWwdi/Go4xnbhyCJLGiUwgRXRMA/I2o0CaIurOKMZ+MCKHI7zHeQTQKExfNL21/AdaI8G1+1K26lqUzwRCXyzN8R3hwT2wJc1G2oP/UahK6NBeVoElogYm90Yf7bUx8uKDk7MMyyRGpt6RMBKIwdlFCR3MSd+KbX0ScNg+O4ox8U7Q2xFTjI+2iRWdGvOOE4V47hmUwlHuKqdaevmZmJnd80kkEkgk0Amgf2TwCIxEEjdqpNuAIGfjnF8vlPgt+Hk1RDpZNrCI5xZivH3a/I4SoL6FJBRndD1aVmXZFbxcg30ky5zAhwK/M9QiNsHAjxaZdjj5FBxyR9R47LQlke9O4JKNMc4ilXxlx15nLnEwRrG9Mk5VcRGTUpngsYhJCBC44lgqu81wQihaJy7IHDrIMd1XSEehiFVUu1ThZ7qJ0fqPinEMVazCMcVBM5sb8DLG4EOZhWoVo1S5oCkkFbyo2wFI8FRxvDDqsBFT1fxOKcMCwuYaCwAASwJx3H+oY34q5KjMRDGyMjiC/u3fLNfZxLIJJBJYO4ksPANBI0CUCJQnoLdAri8s4KvDTnoYb7WYOoUrEwAJmPxhTjCCwsCf7HCxwvyUKmExg2v/duyDDMExjiwUwjcVwV+2hvisbEQXdzBsJND6NI5mIFxcsmr+L55kSImXWjqQxAqYDkP8ZoS8O7lPrbkHRQtPIKiPjZ9MXexkJCyXRYWwPRbWyaGtZAuo5N6GQwPlAWu3jWG26McBpgPzmUChH7V30t9bKos5uIYS+MAa70Yzyu6eM3KBmxwgGWMIS/lpTIkTZYEmTdVDmyPOW4eBm7uDKTxRAWoVACi1oTyOceZDRG+cIiPwzwd7LGLVmSZDHO3urM7ZxLIJJBJYD8ksCgMBNU/pXjoNE0lhe8aF7ioM8DdgYsqqyUkMqdnUqKU8rcMIY5pcnEiMRV6AiVtHJSFwJhg2B4CD/ZF2FGO0C9cjLquVHjq5G4zJtogvVpFSPq4JDiOdkKc1e7itUt8rAIBEen3Jm1RZzhIj4U6PauDukYfWLevUet1jzWgQhkA0FiDTgF8ryfATUMcj3EfFRkuSG0No+AnmytkLJCHwOchWkSEDs/FkU0entPiSPKmJYyyHwTKAugRDA+NAb/uLmM78zDu0TfGJ5N6BCikQb3dyCs4b30ery+4MmPDzm7I/Af7sXKzn2YSyCSQSWCOJbBIDIQ0Fm50Zb8AvtEX4Ko+gacExb5TdWPqHUhXuD5pE3iRsAkNgkvgoqq2SIWTGELmoEpGgU4dNMqUlL7xtE/kG1DKl4ozUqbAaofj1EaBt7W6OLnoojmphJAaN3OZ909yGSVipUDght1V3FF10SUcVfCJmAy1pyPBB9j1HSwDhPpO8iN5+SJCXnBZKVJ6Tsh7IJjMnog0/TPJhzwqJIdYOz+Mx2EpD/GupQx/0+7hEFmGW0tgcqfGHE/17PaZBDIJZBLIJDAbCSx4A8EKZaellCWiH9gWA9d2Bbh5xEEnVJVHCpineHwlChXXT0LqSlnqPH1jViQ60qofYL4zBgNdIzkX9E0bhcAqJ5Z1EIiU6GUtPtZ6QP4A1D+YOMiqUBSBFXdwgVv6QvxoRODR0EGfcBBoQ8FyKtTIxNzPVJck+ch+1ry0JIQKPRAgUVJdTzLjSiLGSxtifHSFhxfkHeR1poVBgaRAx8yPMJsFm12bSSCTQCaBAyWBBW8g1MTjdd6+VHJMSG6AxyOG67tDfGeYMhx8GZdPiJO0FBNPQmItpIaDLkRYQ2FsjAVVF8FWgOoDClusZhwnFhheUuR4YZOPQ32gqBXmvBAAmXgCU+mgw0LgiarAz4cj/KrM8AgBLTkQSkNKYwosOgIjmtrAiZ1XsbcgRep+MIZYIzhOyoX4wHIfpxddtNgYTgv8mMEPDtQyz56TSSCTQCaB2UtgURgIKZOBQvQrdL066odg+GME3Nhbxbf6gR0ucQUmX9fEvG3xmNTH1OWuCyXp6oNSYVoxc3rfKGKscSI8r+ThxXmOU5pzOCQHBUKU108GQJz9oOzbLwyvgkw5kHKKITAsgKcC4N7RGL8Y4/htmcCYDsI63AY9M/GOGIVuuVfqaZONjI0HgS4l1ENRxHhRPsa72lUaZZsmbFIGiGpb+sq8B/s21tmvMglkEsgkMPcSWAQGgiWERAErdSP1N8XAATzNgX8fCPD1Po6twkfAFKpe2woTJDnZeVh+Zul4GVKQ3AEhNrsML2h2cHwuwolNeaz2GAr6+1pmxrkftL09wfAvGs4ERa6ksANU+Gl7leM3YzF+Pi5w3xjHTuFj3GaBtHS3zf68NxkmRoWkdhZYjQinFTne1urhpIKH5hr2RRPqMamTc1tMa/5GIXtyJoFMApkE/jQksLgMBLtuQCJ/RRlMRkI3GH4+HOKWIYZfjkXYTSl/TKH5k7CBBVw0AMb6oSRPQIHHWMViPKfg4uQSw/F54MhGF60uS8iOpBK1jBadizAvM0P1j5gPlfGkvAjqZQwYkhFlIuwIOH5fjfFA1cU9Q6EsgtXPPIQJK2TaBVl0akLNB2Ne0Z05iiLCc32BM5e6OL3IsCHnoEGRTiT4D5W9YNJQrSyOeZFW9tBMApkEMglkEphOAovEQEiPtikXolJS8hyqvybWwbJgeDoQeKDC8ctRjvvHIuyIXIwwF6HEE6hC0OQyp7CATGbkQtYfLIkIa5wYRxTzOLKR4YgGgcN8B6t9B02OABE7q/Q9zVqYeMxlnqB2zM+j21zLIeFK0D4UKSWTTknFpnSqaD8Hng4iPBkx/G6Y44lqjKerHH3wMQJHlqwmmmlpIOhumTBEEyIs5xE254HnN/s4tchwVIOLVkdlQUigqGUg1FIfGMRoWjRruomafZ9JIJNAJoFMAgdWAovEQDBCmSJ+baXOmZNyTyzwTMTxTAB0BgwDsUB/GGMkpCsYCi6wJJ+Tef4tTKCjEVjlAss9B0tdhpKjeAwsXqRFjKubKDv6hCRRBTAYCfTFAl0xx+6QYXdVoD8GBsIYQzEQiBg+Y1jqeejIuVjOImxscrHGAVZ6DlpcJmWl/Rf63d4hj3OZ8nlgl1D2tEwCmQQyCfxpSmCRGQizGwQVfwdCQQqOAI1AVQj5Nx2IPeIwYEqxETeCz+gzVbshydmf3SMX7dXSUyCplKm8NENFiERmJC+SI8mFOBEKjEnipJxDcqPP5yVvY9HKOmt4JoFMApkEFoME/qQNBDUAJjqfRuST0ysZCjLsoL6TJM0HIcg+ATdaNIcGylDznRSnrvJoy6oe0bgYZn7WxkwCmQQyCWQSmFIC/x+D/pM2m/TmKAAAAABJRU5ErkJggg==;" vertex="1" parent="1">
          <mxGeometry x="196.82" y="297" width="106.36" height="36" as="geometry" />
        </mxCell>
        <mxCell id="lMbcXObJ904L43rAlSVf-8" value="" style="shape=image;verticalLabelPosition=bottom;labelBackgroundColor=default;verticalAlign=top;aspect=fixed;imageAspect=0;image=https://4.bp.blogspot.com/-ou-a_Aa1t7A/W6IhNc3Q0gI/AAAAAAAAD6Y/pwh44arKiuM_NBqB1H7Pz4-7QhUxAgZkACLcBGAs/s1600/spring-boot-logo.png;" vertex="1" parent="1">
          <mxGeometry x="590" y="100" width="98.1" height="51.5" as="geometry" />
        </mxCell>
        <mxCell id="lMbcXObJ904L43rAlSVf-9" value="" style="shape=image;verticalLabelPosition=bottom;labelBackgroundColor=default;verticalAlign=top;aspect=fixed;imageAspect=0;image=https://dev-yakuza.posstree.com/assets/images/category/golang/gin/background.jpg;" vertex="1" parent="1">
          <mxGeometry x="910" y="100" width="100.95" height="53" as="geometry" />
        </mxCell>
        <mxCell id="lMbcXObJ904L43rAlSVf-10" value="" style="shape=image;verticalLabelPosition=bottom;labelBackgroundColor=default;verticalAlign=top;aspect=fixed;imageAspect=0;image=https://static.djangoproject.com/img/logos/django-logo-negative.1d528e2cb5fb.png;" vertex="1" parent="1">
          <mxGeometry x="740" y="100" width="131.65" height="60" as="geometry" />
        </mxCell>
        <mxCell id="lMbcXObJ904L43rAlSVf-11" value="" style="endArrow=classic;html=1;rounded=0;" edge="1" parent="1">
          <mxGeometry width="50" height="50" relative="1" as="geometry">
            <mxPoint x="350" y="270" as="sourcePoint" />
            <mxPoint x="570" y="270" as="targetPoint" />
          </mxGeometry>
        </mxCell>
        <mxCell id="lMbcXObJ904L43rAlSVf-12" value="master&lt;br&gt;user_api" style="rounded=0;whiteSpace=wrap;html=1;" vertex="1" parent="1">
          <mxGeometry x="690" y="290.25" width="91.9" height="39.5" as="geometry" />
        </mxCell>
        <mxCell id="lMbcXObJ904L43rAlSVf-16" value="user_api" style="rounded=0;whiteSpace=wrap;html=1;" vertex="1" parent="1">
          <mxGeometry x="781.9" y="245" width="81.9" height="35" as="geometry" />
        </mxCell>
        <mxCell id="lMbcXObJ904L43rAlSVf-17" value="user_api" style="rounded=0;whiteSpace=wrap;html=1;" vertex="1" parent="1">
          <mxGeometry x="789.75" y="350" width="81.9" height="35" as="geometry" />
        </mxCell>
        <mxCell id="lMbcXObJ904L43rAlSVf-19" value="" style="sketch=0;outlineConnect=0;fontColor=#232F3E;gradientColor=none;strokeColor=#232F3E;fillColor=#ffffff;dashed=0;verticalLabelPosition=bottom;verticalAlign=top;align=center;html=1;fontSize=12;fontStyle=0;aspect=fixed;shape=mxgraph.aws4.resourceIcon;resIcon=mxgraph.aws4.cluster;" vertex="1" parent="1">
          <mxGeometry x="792.85" y="285" width="60" height="60" as="geometry" />
        </mxCell>
        <mxCell id="lMbcXObJ904L43rAlSVf-20" value="" style="rounded=0;whiteSpace=wrap;html=1;" vertex="1" parent="1">
          <mxGeometry x="600" y="190" width="370" height="220" as="geometry" />
        </mxCell>
      </root>
    </mxGraphModel>
  </diagram>
</mxfile>
